<svg width="207" height="207" viewBox="0 0 207 207" fill="none" xmlns="http://www.w3.org/2000/svg">
<g clip-path="url(#clip0_94_450)">
<path d="M146.306 88.1188L155.758 102.549C157.56 105.299 158.129 108.337 157.455 111.57C156.781 114.803 155.046 117.36 152.295 119.162L82.0278 165.19C79.277 166.991 76.2396 167.561 73.0064 166.887C69.7733 166.213 67.2162 164.478 65.4143 161.727L55.9623 147.297L146.306 88.1188ZM75.8854 153.075L143.643 108.691L142.41 106.809L74.6525 151.193L75.8854 153.075ZM63.7368 60.6157C77.2564 51.7599 89.6776 46.9189 100.972 46.271C112.388 45.6163 121.153 49.719 126.991 58.6316L130.689 64.2781L40.3458 123.456L36.6472 117.81C30.8092 108.897 30.5497 99.223 35.7108 89.0193C40.8169 78.9243 50.2172 69.4715 63.7368 60.6157ZM71.1341 71.9086C62.153 77.7915 55.4542 83.7854 50.967 89.8701C47.181 95.0042 45.5031 99.6397 45.663 103.835L110.578 61.3135C106.796 59.4909 101.876 59.1772 95.6568 60.5968C88.2862 62.2793 80.1151 66.0257 71.1341 71.9086ZM143.635 84.0408L142.38 84.8627C138.244 87.5716 134.545 88.9732 131.541 88.2663C129.704 87.834 127.631 88.2475 125.23 89.8203C122.838 91.3872 121.47 93.2239 120.931 95.3085C120.133 98.3952 117.343 101.263 113.175 103.993C109.017 106.716 105.29 108.123 102.19 107.555C100.159 107.184 97.9804 107.67 95.5861 109.238C93.1918 110.806 91.8757 112.61 91.4052 114.62C90.6871 117.688 87.9084 120.543 83.7503 123.267C79.6031 125.983 75.8915 127.386 72.8401 126.75C70.9057 126.347 68.779 126.798 66.3816 128.368C63.9871 129.936 62.6703 131.74 62.1999 133.75C61.4818 136.819 58.7039 139.673 54.5458 142.397L53.291 143.219L45.8938 131.926L47.1486 131.104C49.5429 129.536 50.859 127.732 51.3295 125.722C52.0475 122.654 54.8263 119.799 58.9844 117.075C63.1315 114.359 66.8432 112.956 69.8946 113.592C71.8289 113.995 73.9556 113.544 76.353 111.974C78.7475 110.406 80.0643 108.602 80.5348 106.592C81.2528 103.523 84.0308 100.669 88.1889 97.9451C92.3469 95.2215 96.0737 93.8153 99.1734 94.3829C101.204 94.7547 103.384 94.2681 105.778 92.6996C108.175 91.1292 109.438 89.3597 109.841 87.4253C110.477 84.374 113.246 81.5318 117.393 78.8152C121.57 76.0793 125.332 74.6607 128.531 75.0979C130.796 75.4075 132.927 74.9165 134.983 73.5697L136.237 72.7478L143.635 84.0408Z" stroke="#261C19" stroke-width="3"/>
</g>
<defs>
<clipPath id="clip0_94_450">
<rect width="149.358" height="149.358" fill="white" transform="translate(0 81.84) rotate(-33.2261)"/>
</clipPath>
</defs>
</svg>
