<svg width="55" height="55" viewBox="0 0 55 55" fill="none" xmlns="http://www.w3.org/2000/svg">
<path d="M30.4792 47.9948C30.25 48.1858 30.0113 48.3385 29.7631 48.4531C29.5148 48.5677 29.2379 48.625 28.9323 48.625C28.6268 48.625 28.3212 48.5582 28.0157 48.4245C27.7101 48.2908 27.4427 48.1094 27.2136 47.8802C25.6476 46.1997 24.4922 44.4809 23.7474 42.724C23.0026 40.967 22.6302 39.1146 22.6302 37.1667C22.6302 35.7535 22.8403 34.2639 23.2605 32.6979C23.6806 31.1319 24.4063 29.1076 25.4375 26.625C26.316 24.4479 26.9271 22.7769 27.2709 21.612C27.6146 20.447 27.7865 19.3681 27.7865 18.375C27.7865 17.0764 27.5 15.8637 26.9271 14.737C26.3542 13.6102 25.4566 12.474 24.2344 11.3281C24.0052 11.099 23.8238 10.8316 23.6901 10.526C23.5565 10.2205 23.4896 9.91493 23.4896 9.60938C23.4896 9.30382 23.5469 9.02691 23.6615 8.77865C23.7761 8.53038 23.9289 8.29167 24.1198 8.0625C24.349 7.83333 24.6068 7.66146 24.8933 7.54688C25.1797 7.43229 25.4757 7.375 25.7813 7.375C26.0868 7.375 26.3733 7.43229 26.6407 7.54688C26.908 7.66146 27.1563 7.81424 27.3855 8.00521C29.066 9.57118 30.3169 11.2135 31.1381 12.9323C31.9592 14.651 32.3698 16.4653 32.3698 18.375C32.3698 19.7118 32.1693 21.1155 31.7683 22.5859C31.3672 24.0564 30.6702 25.9757 29.6771 28.3438C28.7223 30.6354 28.073 32.3924 27.7292 33.6146C27.3855 34.8368 27.2136 36.0017 27.2136 37.1094C27.2136 38.4462 27.4905 39.7352 28.0443 40.9766C28.5981 42.2179 29.448 43.4688 30.5938 44.7292C30.7848 44.9583 30.9375 45.2066 31.0521 45.474C31.1667 45.7413 31.224 46.0278 31.224 46.3333C31.224 46.6389 31.1667 46.9349 31.0521 47.2214C30.9375 47.5078 30.7466 47.7656 30.4792 47.9948ZM41.6511 47.9948C41.4219 48.1858 41.1832 48.3385 40.9349 48.4531C40.6867 48.5677 40.4098 48.625 40.1042 48.625C39.7987 48.625 39.4931 48.5582 39.1875 48.4245C38.882 48.2908 38.6146 48.1094 38.3855 47.8802C36.8195 46.1997 35.6641 44.4905 34.9193 42.7526C34.1745 41.0148 33.8021 39.1719 33.8021 37.224C33.8021 35.8108 34.0122 34.3021 34.4323 32.6979C34.8525 31.0938 35.5782 29.0694 36.6094 26.625C37.4879 24.4479 38.099 22.7865 38.4427 21.6406C38.7865 20.4948 38.9584 19.4253 38.9584 18.4323C38.9584 17.1337 38.6719 15.9019 38.099 14.737C37.5261 13.572 36.6285 12.4358 35.4063 11.3281C35.1771 11.099 35.0052 10.8411 34.8907 10.5547C34.7761 10.2682 34.7188 9.97222 34.7188 9.66667C34.7188 9.36111 34.7665 9.0842 34.862 8.83594C34.9575 8.58767 35.1007 8.34896 35.2917 8.11979C35.5209 7.89062 35.7882 7.7092 36.0938 7.57552C36.3993 7.44184 36.7049 7.375 37.0105 7.375C37.316 7.375 37.5929 7.43229 37.8412 7.54688C38.0894 7.66146 38.3282 7.81424 38.5573 8.00521C40.2379 9.57118 41.4888 11.2135 42.3099 12.9323C43.1311 14.651 43.5417 16.4653 43.5417 18.375C43.5417 19.7118 43.3412 21.1155 42.9401 22.5859C42.5391 24.0564 41.8421 25.9948 40.849 28.401C39.8941 30.6927 39.2448 32.4497 38.9011 33.6719C38.5573 34.8941 38.3855 36.0399 38.3855 37.1094C38.3855 38.4462 38.6719 39.7543 39.2448 41.0339C39.8177 42.3134 40.6771 43.5642 41.823 44.7865C42.0139 45.0156 42.1572 45.2639 42.2526 45.5312C42.3481 45.7986 42.3959 46.066 42.3959 46.3333C42.3959 46.6389 42.3386 46.9444 42.224 47.25C42.1094 47.5556 41.9184 47.8038 41.6511 47.9948ZM19.3073 47.9948C19.0782 48.1858 18.8394 48.3385 18.5912 48.4531C18.3429 48.5677 18.066 48.625 17.7605 48.625C17.4549 48.625 17.1493 48.5582 16.8438 48.4245C16.5382 48.2908 16.2709 48.1094 16.0417 47.8802C14.4757 46.1997 13.3204 44.4905 12.5756 42.7526C11.8308 41.0148 11.4584 39.1719 11.4584 37.224C11.4584 35.8108 11.6684 34.3021 12.0886 32.6979C12.5087 31.0938 13.2344 29.0694 14.2657 26.625C15.1441 24.4479 15.7552 22.7865 16.099 21.6406C16.4427 20.4948 16.6146 19.4253 16.6146 18.4323C16.6146 17.1337 16.3282 15.9019 15.7552 14.737C15.1823 13.572 14.2848 12.4358 13.0625 11.3281C12.7952 11.099 12.6042 10.8411 12.4896 10.5547C12.375 10.2682 12.3177 9.97222 12.3177 9.66667C12.3177 9.36111 12.375 9.07465 12.4896 8.80729C12.6042 8.53993 12.757 8.29167 12.948 8.0625C13.1771 7.83333 13.4349 7.66146 13.7214 7.54688C14.0079 7.43229 14.3039 7.375 14.6094 7.375C14.915 7.375 15.2014 7.43229 15.4688 7.54688C15.7362 7.66146 15.9844 7.81424 16.2136 8.00521C17.8941 9.57118 19.145 11.204 19.9662 12.9036C20.7874 14.6033 21.198 16.4271 21.198 18.375C21.198 19.7118 21.007 21.1155 20.625 22.5859C20.2431 24.0564 19.5556 25.9757 18.5625 28.3438C17.6077 30.6354 16.9584 32.3924 16.6146 33.6146C16.2709 34.8368 16.099 36.0017 16.099 37.1094C16.099 38.4462 16.3759 39.7543 16.9297 41.0339C17.4835 42.3134 18.3334 43.5642 19.4792 44.7865C19.6702 45.0156 19.8134 45.2639 19.9089 45.5312C20.0044 45.7986 20.0521 46.066 20.0521 46.3333C20.0521 46.6389 19.9948 46.9444 19.8802 47.25C19.7657 47.5556 19.5747 47.8038 19.3073 47.9948Z" fill="url(#paint0_linear_94_518)"/>
<defs>
<linearGradient id="paint0_linear_94_518" x1="27.5" y1="7.375" x2="27.5" y2="48.625" gradientUnits="userSpaceOnUse">
<stop stop-color="#FF3500"/>
<stop offset="1" stop-color="#940000"/>
</linearGradient>
</defs>
</svg>
