<svg width="267" height="267" viewBox="0 0 267 267" fill="none" xmlns="http://www.w3.org/2000/svg">
<path d="M122.375 100.125V66.75H89V44.5H122.375V11.125H144.625V44.5H178V66.75H144.625V100.125H122.375ZM77.875 244.75C71.7563 244.75 66.5182 242.571 62.1609 238.214C57.8036 233.857 55.625 228.619 55.625 222.5C55.625 216.381 57.8036 211.143 62.1609 206.786C66.5182 202.429 71.7563 200.25 77.875 200.25C83.9938 200.25 89.2318 202.429 93.5891 206.786C97.9464 211.143 100.125 216.381 100.125 222.5C100.125 228.619 97.9464 233.857 93.5891 238.214C89.2318 242.571 83.9938 244.75 77.875 244.75ZM189.125 244.75C183.006 244.75 177.768 242.571 173.411 238.214C169.054 233.857 166.875 228.619 166.875 222.5C166.875 216.381 169.054 211.143 173.411 206.786C177.768 202.429 183.006 200.25 189.125 200.25C195.244 200.25 200.482 202.429 204.839 206.786C209.196 211.143 211.375 216.381 211.375 222.5C211.375 228.619 209.196 233.857 204.839 238.214C200.482 242.571 195.244 244.75 189.125 244.75ZM11.125 44.5V22.25H47.5594L94.8406 122.375H172.716L216.103 44.5H241.413L192.463 132.944C190.423 136.652 187.688 139.526 184.258 141.566C180.828 143.605 177.073 144.625 172.994 144.625H90.1125L77.875 166.875H211.375V189.125H77.875C69.5313 189.125 63.1807 185.509 58.8234 178.278C54.4661 171.047 54.3271 163.723 58.4063 156.306L73.425 129.05L33.375 44.5H11.125Z" fill="#C5BCBC"/>
</svg>
