<svg width="78" height="78" viewBox="0 0 78 78" fill="none" xmlns="http://www.w3.org/2000/svg">
<path d="M23.4216 78C21.2747 78 19.4367 77.2362 17.9078 75.7087C16.3789 74.1812 15.6144 72.345 15.6144 70.2C15.6144 68.055 16.3789 66.2188 17.9078 64.6912C19.4367 63.1637 21.2747 62.4 23.4216 62.4C25.5686 62.4 27.4066 63.1637 28.9355 64.6912C30.4644 66.2188 31.2289 68.055 31.2289 70.2C31.2289 72.345 30.4644 74.1812 28.9355 75.7087C27.4066 77.2362 25.5686 78 23.4216 78ZM62.4577 78C60.3107 78 58.4728 77.2362 56.9439 75.7087C55.4149 74.1812 54.6505 72.345 54.6505 70.2C54.6505 68.055 55.4149 66.2188 56.9439 64.6912C58.4728 63.1637 60.3107 62.4 62.4577 62.4C64.6047 62.4 66.4426 63.1637 67.9715 64.6912C69.5005 66.2188 70.2649 68.055 70.2649 70.2C70.2649 72.345 69.5005 74.1812 67.9715 75.7087C66.4426 77.2362 64.6047 78 62.4577 78ZM20.1036 15.6L29.4722 35.1H56.7975L67.5324 15.6H20.1036ZM16.3951 7.8H73.9733C75.4697 7.8 76.6083 8.46625 77.389 9.79875C78.1697 11.1312 78.2022 12.48 77.4866 13.845L63.6288 38.805C62.9131 40.105 61.9535 41.1125 60.7499 41.8275C59.5463 42.5425 58.2288 42.9 56.7975 42.9H27.7156L23.4216 50.7H70.2649V58.5H23.4216C20.4939 58.5 18.2819 57.2162 16.7855 54.6487C15.2891 52.0812 15.2241 49.53 16.5903 46.995L21.8602 37.44L7.80721 7.8H0V0H12.6867L16.3951 7.8Z" fill="#FEFDFF"/>
</svg>
