<svg width="129" height="129" viewBox="0 0 129 129" fill="none" xmlns="http://www.w3.org/2000/svg">
<path d="M25.4058 18.2136C28.9475 15.1875 32.9086 13.2009 37.276 12.2833C41.2919 11.4396 45.3 11.5432 49.2832 12.5839C49.7818 11.9319 50.2948 11.296 50.823 10.6773C51.604 9.76267 52.4787 8.89273 53.4446 8.0675C58.974 3.34317 65.2561 1.14525 72.2254 1.54656C79.1946 1.94799 84.9888 4.82035 89.5177 10.1209C92.6094 13.7396 94.4676 17.9641 95.0859 22.7565C95.6642 27.2386 95.0779 31.6166 93.3446 35.8676L126.114 74.2201L65.0105 126.428L32.2415 88.075C27.7721 89.1237 23.3562 89.0196 19.0193 87.749C14.3821 86.3904 10.4993 83.8958 7.40747 80.2772C2.87856 74.9766 0.945585 68.8052 1.63664 61.8587C2.32781 54.9121 5.47914 49.05 11.0085 44.3256C11.9091 43.5561 12.8852 42.8452 13.9348 42.1926C14.6562 41.7441 15.3848 41.3209 16.1188 40.9213C15.7122 36.8241 16.2355 32.8484 17.6958 29.0129C19.2837 24.8422 21.864 21.2397 25.4058 18.2136ZM66.925 107.035L106.66 73.085L101.788 67.3829L62.053 101.333L66.925 107.035ZM46.2172 48.7694L65.2179 71.0076L54.5339 80.1362L35.5332 57.898L46.2172 48.7694ZM63.0236 34.4098L82.0242 56.648L71.3402 65.7766L52.3396 43.5384L63.0236 34.4098ZM53.2835 91.0693L93.0185 57.1191L77.2633 38.6793L77.6499 37.8134L80.3959 31.6689C81.3756 29.4768 81.7216 27.3062 81.4695 25.1321C81.2193 22.975 80.3784 21.0575 78.9187 19.349C76.7937 16.8619 74.1556 15.5434 70.9205 15.3444C67.6794 15.1451 64.8006 16.1214 62.2141 18.3313C61.5081 18.9345 60.9402 19.5259 60.498 20.1007C60.0053 20.7412 59.5021 21.4471 58.9893 22.2195L58.9721 22.2445L55.1436 27.7609L54.515 28.6653L53.4631 28.3361L45.7737 25.9302L45.773 25.9294C43.7331 25.3144 41.7139 25.2389 39.6906 25.6943C37.6479 26.1542 35.8147 27.0767 34.1753 28.4774C32.5359 29.8781 31.3387 31.5449 30.5657 33.4908C29.8 35.4184 29.5588 37.4249 29.848 39.536L31.0259 47.5068L31.1859 48.5916L30.2019 49.074L24.0971 52.0615C23.2725 52.5319 22.4497 52.9717 21.6288 53.3805C20.9336 53.7267 20.2823 54.1585 19.6733 54.6788C17.087 56.8886 15.6942 59.5606 15.4174 62.7543C15.1404 65.9512 16.0458 68.7543 18.1765 71.2481C19.6362 72.9566 21.399 74.0863 23.4907 74.6701C25.5988 75.2584 27.7968 75.2553 30.115 74.6298L36.6126 72.8763L37.5283 72.6295L53.2835 91.0693Z" stroke="#261C19" stroke-width="3"/>
</svg>
