<svg width="75" height="75" viewBox="0 0 75 75" fill="none" xmlns="http://www.w3.org/2000/svg">
<path d="M21.875 62.5C19.2708 62.5 17.0573 61.5885 15.2344 59.7656C13.4115 57.9427 12.5 55.7292 12.5 53.125H4.6875L6.09375 46.875H14.9219C15.8073 45.8854 16.849 45.1172 18.0469 44.5703C19.2448 44.0234 20.5208 43.75 21.875 43.75C23.2292 43.75 24.5052 44.0234 25.7031 44.5703C26.901 45.1172 27.9427 45.8854 28.8281 46.875H41.875L48.4375 18.75H20.4688L21.7969 12.5H56.25L53.3594 25H62.5L71.875 37.5L68.75 53.125H62.5C62.5 55.7292 61.5885 57.9427 59.7656 59.7656C57.9427 61.5885 55.7292 62.5 53.125 62.5C50.5208 62.5 48.3073 61.5885 46.4844 59.7656C44.6615 57.9427 43.75 55.7292 43.75 53.125H31.25C31.25 55.7292 30.3385 57.9427 28.5156 59.7656C26.6927 61.5885 24.4792 62.5 21.875 62.5ZM49.7656 40.625H64.8438L65.1562 38.9844L59.375 31.25H51.9531L49.7656 40.625ZM48.4375 18.75L41.875 46.875L42.0312 46.3281L48.4375 18.75ZM10.9375 40.625V31.25H3.125L14.0625 15.625V25H21.875L10.9375 40.625ZM21.875 56.25C22.7604 56.25 23.5026 55.9505 24.1016 55.3516C24.7005 54.7526 25 54.0104 25 53.125C25 52.2396 24.7005 51.4974 24.1016 50.8984C23.5026 50.2995 22.7604 50 21.875 50C20.9896 50 20.2474 50.2995 19.6484 50.8984C19.0495 51.4974 18.75 52.2396 18.75 53.125C18.75 54.0104 19.0495 54.7526 19.6484 55.3516C20.2474 55.9505 20.9896 56.25 21.875 56.25ZM53.125 56.25C54.0104 56.25 54.7526 55.9505 55.3516 55.3516C55.9505 54.7526 56.25 54.0104 56.25 53.125C56.25 52.2396 55.9505 51.4974 55.3516 50.8984C54.7526 50.2995 54.0104 50 53.125 50C52.2396 50 51.4974 50.2995 50.8984 50.8984C50.2995 51.4974 50 52.2396 50 53.125C50 54.0104 50.2995 54.7526 50.8984 55.3516C51.4974 55.9505 52.2396 56.25 53.125 56.25Z" fill="url(#paint0_linear_94_506)"/>
<defs>
<linearGradient id="paint0_linear_94_506" x1="37.5" y1="12.5" x2="37.5" y2="62.5" gradientUnits="userSpaceOnUse">
<stop stop-color="#FF3500"/>
<stop offset="1" stop-color="#940000"/>
</linearGradient>
</defs>
</svg>
