<svg width="146" height="146" viewBox="0 0 146 146" fill="none" xmlns="http://www.w3.org/2000/svg">
<g clip-path="url(#clip0_94_454)">
<path d="M109.911 93.5928L113.21 98.4541C114.118 99.7924 114.453 101.289 114.152 102.864C113.85 104.439 112.986 105.706 111.648 106.614L64.5863 138.551C63.2481 139.46 61.7511 139.794 60.1764 139.493C58.6016 139.191 57.3342 138.327 56.426 136.989L53.1271 132.128L109.911 93.5928ZM68.0178 16.2769L77.8446 30.7574L96.0753 18.3857L96.8644 19.8424L131.549 83.809L131.557 83.8225L131.564 83.8357C132.577 85.7975 132.805 87.8827 132.239 90.0163C131.676 92.1364 130.472 93.84 128.663 95.068L121.267 100.087L114.669 90.364L119.855 86.8446L91.9664 35.3742L57.6698 58.6486L56.7964 57.6538L50.978 51.0278L49.8565 49.7507L68.1219 37.3554L58.2952 22.8749L68.0178 16.2769ZM100.085 79.1123L106.683 88.8349L49.8983 127.37L43.3003 117.647L100.085 79.1123ZM52.0389 69.4187C59.4041 64.4206 67.3565 62.0171 75.8602 62.2522C84.4986 62.491 91.2705 66.1241 96.0135 73.1132L96.8558 74.3544L40.0715 112.889L39.2292 111.648C34.4862 104.659 33.6115 97.024 36.5803 88.9083C39.5028 80.9192 44.6738 74.4169 52.0389 69.4187ZM58.6369 79.1414C55.39 81.3448 52.5934 83.9828 50.2415 87.0586C48.6316 89.164 47.5824 91.4505 47.0814 93.9322L76.65 73.8663C74.1588 73.4153 71.6464 73.5457 69.0953 74.2641C65.3683 75.3136 61.8838 76.938 58.6369 79.1414Z" stroke="#261C19" stroke-width="3"/>
</g>
<defs>
<clipPath id="clip0_94_454">
<rect width="105" height="105" fill="white" transform="translate(0 58.9605) rotate(-34.1616)"/>
</clipPath>
</defs>
</svg>
