<svg width="150" height="150" viewBox="0 0 150 150" fill="none" xmlns="http://www.w3.org/2000/svg">
<path d="M115.946 88.4199V102.67C115.946 105.156 115.078 107.247 113.301 109.024C111.524 110.802 109.433 111.67 106.946 111.67H22.9463C20.4598 111.67 18.369 110.802 16.5918 109.024C14.8146 107.247 13.9463 105.156 13.9463 102.67V88.4199H115.946ZM21.4463 104.17H108.446V95.9199H21.4463V104.17ZM99.8584 64.7949C104.665 64.7949 107.654 65.6703 109.243 67.0518C111.17 68.7269 113.42 69.6924 115.946 69.9629V77.5117C112.024 77.3445 109.76 76.5127 108.69 75.3867C106.665 73.255 103.813 72.2949 100.384 72.2949C96.9436 72.2949 94.0194 73.2582 91.7627 75.3096C90.272 76.6648 87.3515 77.5449 82.5342 77.5449C77.705 77.5449 74.855 76.6607 73.4619 75.334C71.282 73.2579 68.3838 72.2949 64.9463 72.2949C61.5088 72.2949 58.6106 73.2579 56.4307 75.334C55.0376 76.6607 52.1876 77.5449 47.3584 77.5449C42.5165 77.5449 39.7402 76.6553 38.4443 75.3594C36.3417 73.2567 33.4679 72.295 30.0342 72.2949C26.5967 72.2949 23.6975 73.2579 21.5176 75.334C20.2753 76.5168 17.8752 77.3455 13.9463 77.5117V69.9766C16.7313 69.7295 19.1069 68.7726 20.9619 67.0059C22.355 65.6792 25.205 64.7949 30.0342 64.7949C34.8761 64.795 37.6524 65.6846 38.9482 66.9805C41.0509 69.0831 43.9247 70.0448 47.3584 70.0449C50.7959 70.0449 53.6951 69.082 55.875 67.0059C57.2682 65.6793 60.1174 64.7949 64.9463 64.7949C69.7751 64.7949 72.6244 65.6793 74.0176 67.0059C76.1975 69.082 79.0967 70.0449 82.5342 70.0449C85.9679 70.0449 88.8417 69.0831 90.9443 66.9805C92.2402 65.6846 95.0165 64.795 99.8584 64.7949ZM64.9463 20.1699C80.8094 20.1699 93.2724 22.8822 102.457 28.1729C111.536 33.4028 115.946 40.6994 115.946 50.1699V53.9199H13.9463V50.1699C13.9463 40.6994 18.3564 33.4028 27.4355 28.1729C36.6202 22.8822 49.0832 20.1699 64.9463 20.1699ZM64.9463 27.6699C53.9828 27.6699 44.7143 29.0384 37.1895 31.832C29.6593 34.6277 24.5666 38.7519 22.3398 44.3672L21.5254 46.4199H108.367L107.553 44.3672C105.326 38.7519 100.233 34.6277 92.7031 31.832C85.1783 29.0384 75.9098 27.6699 64.9463 27.6699Z" fill="#DE2E00" stroke="#401D13" stroke-width="3"/>
</svg>
