<svg width="63" height="48" viewBox="0 0 63 48" fill="none" xmlns="http://www.w3.org/2000/svg">
<path d="M0 48V36C0 34.3 0.560795 32.875 1.68239 31.725C2.80398 30.575 4.15227 30 5.72727 30H15.1057C16.0602 30 16.967 30.25 17.8261 30.75C18.6852 31.25 19.3773 31.925 19.9023 32.775C21.2864 34.725 22.9926 36.25 25.021 37.35C27.0494 38.45 29.2091 39 31.5 39C33.8386 39 36.0222 38.45 38.0506 37.35C40.079 36.25 41.7614 34.725 43.0977 32.775C43.7182 31.925 44.446 31.25 45.2812 30.75C46.1165 30.25 46.9875 30 47.8943 30H57.2727C58.8955 30 60.2557 30.575 61.3534 31.725C62.4511 32.875 63 34.3 63 36V48H42.9545V41.175C41.2841 42.425 39.4824 43.375 37.5494 44.025C35.6165 44.675 33.6 45 31.5 45C29.4477 45 27.4432 44.6625 25.4864 43.9875C23.5295 43.3125 21.7159 42.35 20.0455 41.1V48H0ZM31.5 36C29.6864 36 27.9682 35.5625 26.3455 34.6875C24.7227 33.8125 23.3625 32.6 22.2648 31.05C21.4534 29.8 20.4392 28.8125 19.2222 28.0875C18.0051 27.3625 16.6807 27 15.2489 27C16.2989 25.15 18.5182 23.6875 21.9068 22.6125C25.2955 21.5375 28.4932 21 31.5 21C34.5068 21 37.7045 21.5375 41.0932 22.6125C44.4818 23.6875 46.7011 25.15 47.7511 27C46.367 27 45.0545 27.3625 43.8136 28.0875C42.5727 28.8125 41.5466 29.8 40.7352 31.05C39.6852 32.65 38.3489 33.875 36.7261 34.725C35.1034 35.575 33.3614 36 31.5 36ZM8.59091 27C6.20455 27 4.17614 26.125 2.50568 24.375C0.835227 22.625 0 20.5 0 18C0 15.45 0.835227 13.3125 2.50568 11.5875C4.17614 9.8625 6.20455 9 8.59091 9C11.025 9 13.0653 9.8625 14.7119 11.5875C16.3585 13.3125 17.1818 15.45 17.1818 18C17.1818 20.5 16.3585 22.625 14.7119 24.375C13.0653 26.125 11.025 27 8.59091 27ZM54.4091 27C52.0227 27 49.9943 26.125 48.3239 24.375C46.6534 22.625 45.8182 20.5 45.8182 18C45.8182 15.45 46.6534 13.3125 48.3239 11.5875C49.9943 9.8625 52.0227 9 54.4091 9C56.8432 9 58.8835 9.8625 60.5301 11.5875C62.1767 13.3125 63 15.45 63 18C63 20.5 62.1767 22.625 60.5301 24.375C58.8835 26.125 56.8432 27 54.4091 27ZM31.5 18C29.1136 18 27.0852 17.125 25.4148 15.375C23.7443 13.625 22.9091 11.5 22.9091 9C22.9091 6.45 23.7443 4.3125 25.4148 2.5875C27.0852 0.8625 29.1136 0 31.5 0C33.9341 0 35.9744 0.8625 37.621 2.5875C39.2676 4.3125 40.0909 6.45 40.0909 9C40.0909 11.5 39.2676 13.625 37.621 15.375C35.9744 17.125 33.9341 18 31.5 18Z" fill="url(#paint0_linear_180_199)"/>
<defs>
<linearGradient id="paint0_linear_180_199" x1="31.5" y1="0" x2="31.5" y2="48" gradientUnits="userSpaceOnUse">
<stop stop-color="#F5D52C"/>
<stop offset="1" stop-color="#DE2E00"/>
</linearGradient>
</defs>
</svg>
