<svg width="51" height="54" viewBox="0 0 51 54" fill="none" xmlns="http://www.w3.org/2000/svg">
<path d="M17.4474 32.4H22.8158V18.9H17.4474V32.4ZM6.71053 28.35C4.65263 27.315 3.01974 25.8188 1.81184 23.8613C0.603947 21.9038 0 19.7775 0 17.4825C0 14.1075 1.15197 11.25 3.45592 8.91C5.75987 6.57 8.58947 5.4 11.9447 5.4C12.4816 5.4 13.0296 5.445 13.5888 5.535C14.148 5.625 14.6961 5.7375 15.2329 5.8725C16.3513 4.0275 17.8053 2.5875 19.5947 1.5525C21.3842 0.5175 23.3526 0 25.5 0C27.6474 0 29.6158 0.5175 31.4053 1.5525C33.1947 2.5875 34.6487 4.0275 35.7671 5.8725C36.3039 5.7375 36.8408 5.625 37.3776 5.535C37.9145 5.445 38.4737 5.4 39.0553 5.4C42.4105 5.4 45.2401 6.57 47.5441 8.91C49.848 11.25 51 14.1075 51 17.4825C51 19.7775 50.3961 21.9038 49.1882 23.8613C47.9803 25.8188 46.3474 27.315 44.2895 28.35V43.2H6.71053V28.35ZM28.1842 32.4H33.5526V18.9H28.1842V32.4ZM12.0789 37.8H38.9211V25.0425L41.8737 23.5575C43.0368 22.9725 43.9539 22.1513 44.625 21.0938C45.2961 20.0363 45.6316 18.855 45.6316 17.55C45.6316 15.66 44.9941 14.0625 43.7191 12.7575C42.4441 11.4525 40.8895 10.8 39.0553 10.8C38.5632 10.8 38.1158 10.845 37.7132 10.935C37.3105 11.025 36.8855 11.1375 36.4382 11.2725L33.2842 12.15L31.2039 8.64C30.5776 7.605 29.7612 6.80625 28.7546 6.24375C27.748 5.68125 26.6632 5.4 25.5 5.4C24.3368 5.4 23.252 5.68125 22.2454 6.24375C21.2388 6.80625 20.4224 7.605 19.7961 8.64L17.7158 12.15L14.4947 11.2725C14.0474 11.1825 13.6112 11.0813 13.1862 10.9688C12.7612 10.8563 12.325 10.8 11.8776 10.8C10.0434 10.8 8.5 11.4525 7.24737 12.7575C5.99474 14.0625 5.36842 15.66 5.36842 17.55C5.36842 18.855 5.70395 20.0363 6.375 21.0938C7.04605 22.1513 7.96316 22.9725 9.12632 23.5575L12.0789 25.0425V37.8ZM6.71053 43.2H12.0789V48.6H38.9211V43.2H44.2895V54H6.71053V43.2Z" fill="url(#paint0_linear_180_203)"/>
<defs>
<linearGradient id="paint0_linear_180_203" x1="25.5" y1="0" x2="25.5" y2="54" gradientUnits="userSpaceOnUse">
<stop stop-color="#F5D52C"/>
<stop offset="1" stop-color="#DE2E00"/>
</linearGradient>
</defs>
</svg>
