<svg width="63" height="63" viewBox="0 0 63 63" fill="none" xmlns="http://www.w3.org/2000/svg">
<path d="M31.5 63L22.1615 53.8009H9.19911V40.8385L0 31.5L9.19911 22.1615V9.19911H22.1615L31.5 0L40.8385 9.19911H53.8009V22.1615L63 31.5L53.8009 40.8385V53.8009H40.8385L31.5 63ZM31.5 55.1947L37.0752 49.6195V39.3053C35.8673 38.6084 34.8684 37.4353 34.0785 35.7859C33.2887 34.1366 32.8938 32.2434 32.8938 30.1062C32.8938 27.4115 33.4978 25.1117 34.7058 23.2069C35.9137 21.302 37.4004 20.3496 39.1659 20.3496C40.885 20.3496 42.3601 21.302 43.5913 23.2069C44.8225 25.1117 45.4381 27.4115 45.4381 30.1062C45.4381 32.2898 45.0431 34.2063 44.2533 35.8556C43.4635 37.505 42.4646 38.6549 41.2566 39.3053V48.2257H48.2257V38.469L55.1947 31.5L48.2257 24.531V14.7743H38.469L31.5 7.80531L24.531 14.7743H14.7743V24.531L7.80531 31.5L14.7743 38.469V48.2257H21.7434V37.0752C20.5354 36.7965 19.5365 36.1576 18.7467 35.1587C17.9569 34.1598 17.5619 33.01 17.5619 31.7091V20.3496H20.3496V30.8728H22.4403V20.3496H25.2279V30.8728H27.3186V20.3496H30.1062V31.7091C30.1062 33.01 29.7113 34.1598 28.9215 35.1587C28.1316 36.1576 27.1327 36.7965 25.9248 37.0752V49.6195L31.5 55.1947Z" fill="url(#paint0_linear_180_195)"/>
<defs>
<linearGradient id="paint0_linear_180_195" x1="31.5" y1="0" x2="31.5" y2="63" gradientUnits="userSpaceOnUse">
<stop stop-color="#F5D52C"/>
<stop offset="1" stop-color="#DE2E00"/>
</linearGradient>
</defs>
</svg>
