<svg width="55" height="55" viewBox="0 0 55 55" fill="none" xmlns="http://www.w3.org/2000/svg">
<path fill-rule="evenodd" clip-rule="evenodd" d="M27.4291 41.1429C35.0033 41.1429 41.1434 35.0028 41.1434 27.4286C41.1434 19.8544 35.0033 13.7144 27.4291 13.7144C19.8549 13.7144 13.7148 19.8544 13.7148 27.4286C13.7148 35.0028 19.8549 41.1429 27.4291 41.1429ZM27.4291 36.5715C32.4785 36.5715 36.572 32.478 36.572 27.4286C36.572 22.3792 32.4785 18.2858 27.4291 18.2858C22.3797 18.2858 18.2863 22.3792 18.2863 27.4286C18.2863 32.478 22.3797 36.5715 27.4291 36.5715Z" fill="#0F0F0F"/>
<path d="M41.1431 11.4287C39.8807 11.4287 38.8574 12.4521 38.8574 13.7144C38.8574 14.9768 39.8807 16.0001 41.1431 16.0001C42.4055 16.0001 43.4289 14.9768 43.4289 13.7144C43.4289 12.4521 42.4055 11.4287 41.1431 11.4287Z" fill="#0F0F0F"/>
<path fill-rule="evenodd" clip-rule="evenodd" d="M3.77992 9.77378C2.28516 12.7074 2.28516 16.5478 2.28516 24.2285V30.6285C2.28516 38.3092 2.28516 42.1496 3.77992 45.0831C5.09476 47.6637 7.19277 49.7618 9.77329 51.0765C12.7069 52.5714 16.5473 52.5714 24.228 52.5714H30.628C38.3087 52.5714 42.1492 52.5714 45.0826 51.0765C47.6632 49.7618 49.7613 47.6637 51.076 45.0831C52.5709 42.1496 52.5709 38.3092 52.5709 30.6285V24.2285C52.5709 16.5478 52.5709 12.7074 51.076 9.77378C49.7613 7.19326 47.6632 5.09524 45.0826 3.78041C42.1492 2.28564 38.3087 2.28564 30.628 2.28564H24.228C16.5473 2.28564 12.7069 2.28564 9.77329 3.78041C7.19277 5.09524 5.09476 7.19326 3.77992 9.77378ZM30.628 6.85707H24.228C20.3122 6.85707 17.6503 6.86064 15.5928 7.02873C13.5886 7.19248 12.5636 7.48928 11.8487 7.85358C10.1283 8.73015 8.72966 10.1288 7.85309 11.8492C7.48879 12.5641 7.19199 13.5891 7.02824 15.5933C6.86015 17.6508 6.85658 20.3127 6.85658 24.2285V30.6285C6.85658 34.5444 6.86015 37.2061 7.02824 39.2637C7.19199 41.268 7.48879 42.293 7.85309 43.0079C8.72966 44.7282 10.1283 46.1268 11.8487 47.0034C12.5636 47.3677 13.5886 47.6646 15.5928 47.8283C17.6503 47.9963 20.3122 47.9999 24.228 47.9999H30.628C34.5439 47.9999 37.2056 47.9963 39.2632 47.8283C41.2676 47.6646 42.2925 47.3677 43.0074 47.0034C44.7277 46.1268 46.1263 44.7282 47.0029 43.0079C47.3672 42.293 47.6641 41.268 47.8278 39.2637C47.9958 37.2061 47.9994 34.5444 47.9994 30.6285V24.2285C47.9994 20.3127 47.9958 17.6508 47.8278 15.5933C47.6641 13.5891 47.3672 12.5641 47.0029 11.8492C46.1263 10.1288 44.7277 8.73015 43.0074 7.85358C42.2925 7.48928 41.2676 7.19248 39.2632 7.02873C37.2056 6.86064 34.5439 6.85707 30.628 6.85707Z" fill="#0F0F0F"/>
</svg>
