<svg width="276" height="79" viewBox="0 0 276 79" fill="none" xmlns="http://www.w3.org/2000/svg">
<path d="M13.848 62.32C12.128 61.2 11.108 60.08 10.788 58.96C10.508 57.84 10.908 56.94 11.988 56.26C12.228 56.1 12.688 56.08 13.368 56.2C14.088 56.32 14.628 56.56 14.988 56.92C15.788 57.64 16.688 58.08 17.688 58.24C18.728 58.44 19.988 58.34 21.468 57.94C23.148 57.42 24.428 56.78 25.308 56.02C26.228 55.22 27.248 54.14 28.368 52.78C29.208 51.7 29.788 50.64 30.108 49.6C30.468 48.56 30.628 47.62 30.588 46.78C30.588 45.9 30.388 45.24 29.988 44.8C28.988 43.4 27.748 42.44 26.268 41.92C24.788 41.36 22.848 41.4 20.448 42.04C20.168 42.08 19.748 42.16 19.188 42.28C18.628 42.4 18.128 42.52 17.688 42.64C17.248 42.72 17.008 42.76 16.968 42.76C16.688 42.84 16.468 42.88 16.308 42.88C16.148 42.88 15.948 43.08 15.708 43.48C15.508 43.84 15.188 44.62 14.748 45.82C14.308 46.98 13.648 48.78 12.768 51.22C11.928 53.66 11.208 55.4 10.608 56.44C10.048 57.44 9.54798 57.9 9.10798 57.82C8.66798 57.7 8.16798 57.26 7.60798 56.5C7.28798 55.94 6.92798 55.32 6.52798 54.64C6.16798 53.96 6.18798 53.26 6.58798 52.54C6.78798 52.18 6.94798 51.86 7.06798 51.58C7.18798 51.26 7.34798 50.72 7.54798 49.96C7.74798 49.36 8.12798 48.32 8.68798 46.84C9.28798 45.32 9.98798 43.56 10.788 41.56C11.588 39.52 12.428 37.42 13.308 35.26C14.188 33.1 15.028 31.06 15.828 29.14C16.668 27.22 17.368 25.6 17.928 24.28C18.488 23.04 18.828 22.14 18.948 21.58C19.068 21.02 19.028 20.72 18.828 20.68C18.828 20.48 18.768 20.3 18.648 20.14C18.528 19.94 18.488 19.76 18.528 19.6C18.528 19.44 18.868 19.22 19.548 18.94C20.268 18.66 21.028 18.4 21.828 18.16C22.628 17.92 23.208 17.84 23.568 17.92C23.768 17.92 24.008 17.92 24.288 17.92C24.568 17.88 24.708 17.78 24.708 17.62C24.828 17.62 25.208 17.58 25.848 17.5C26.488 17.42 27.188 17.42 27.948 17.5C30.628 17.74 32.828 18.52 34.548 19.84C36.268 21.12 37.108 23.18 37.068 26.02C37.028 26.7 36.748 27.58 36.228 28.66C35.708 29.74 35.048 30.82 34.248 31.9C33.488 32.98 32.668 33.92 31.788 34.72C31.268 35.16 30.708 35.62 30.108 36.1C29.548 36.54 29.048 36.92 28.608 37.24C28.208 37.52 28.008 37.66 28.008 37.66C28.008 37.66 28.168 37.72 28.488 37.84C28.808 37.96 29.148 38.08 29.508 38.2C31.348 38.88 32.788 39.74 33.828 40.78C34.908 41.82 35.668 43.26 36.108 45.1C36.268 45.7 36.268 46.44 36.108 47.32C35.988 48.2 35.808 49.08 35.568 49.96C35.328 50.8 35.068 51.52 34.788 52.12C34.508 52.4 34.288 52.7 34.128 53.02C33.968 53.3 33.888 53.44 33.888 53.44C33.888 53.52 33.728 53.84 33.408 54.4C33.088 54.92 32.708 55.5 32.268 56.14C31.828 56.78 31.408 57.34 31.008 57.82C30.608 58.14 30.028 58.58 29.268 59.14C28.548 59.74 27.748 60.32 26.868 60.88C26.028 61.44 25.228 61.86 24.468 62.14C23.348 62.62 22.088 62.94 20.688 63.1C19.328 63.3 18.028 63.32 16.788 63.16C15.548 63.04 14.568 62.76 13.848 62.32ZM18.168 37.42C18.168 37.42 18.488 37.36 19.128 37.24C19.808 37.08 20.548 36.92 21.348 36.76C22.148 36.56 22.748 36.38 23.148 36.22C23.348 36.1 23.628 35.94 23.988 35.74C24.388 35.54 24.788 35.24 25.188 34.84C25.748 34.32 26.348 33.74 26.988 33.1C27.628 32.42 28.248 31.7 28.848 30.94C29.488 30.18 30.028 29.36 30.468 28.48C31.388 27.04 31.888 26 31.968 25.36C32.048 24.72 31.828 24.14 31.308 23.62C30.948 23.18 30.448 22.86 29.808 22.66C29.168 22.42 28.468 22.3 27.708 22.3C26.988 22.26 26.288 22.34 25.608 22.54C25.088 22.7 24.688 22.9 24.408 23.14C24.128 23.34 23.988 23.66 23.988 24.1C23.988 24.46 23.868 24.84 23.628 25.24C23.428 25.6 23.228 25.88 23.028 26.08C22.988 26.36 22.848 26.64 22.608 26.92C22.408 27.16 22.308 27.28 22.308 27.28C22.308 27.44 22.048 27.94 21.528 28.78C21.048 29.58 20.528 30.74 19.968 32.26C19.248 33.98 18.768 35.22 18.528 35.98C18.288 36.74 18.168 37.22 18.168 37.42ZM53.2342 57.88C52.8342 57.48 52.5142 56.94 52.2742 56.26C52.0342 55.54 51.7942 54.72 51.5542 53.8C51.4742 53.48 51.4342 53.12 51.4342 52.72C51.4742 52.32 51.4742 52 51.4342 51.76C51.3142 52.04 51.1142 52.4 50.8342 52.84C50.5942 53.28 50.3542 53.6 50.1142 53.8C49.9542 53.96 49.5942 54.28 49.0342 54.76C48.4742 55.2 47.9142 55.56 47.3542 55.84C46.0342 56.68 44.8542 57.08 43.8142 57.04C42.8142 56.96 41.9342 56.44 41.1742 55.48C40.5342 54.96 40.0142 54.3 39.6142 53.5C39.2142 52.7 39.1342 51.74 39.3742 50.62C39.4542 49.22 39.6542 47.86 39.9742 46.54C40.2942 45.18 40.9542 43.38 41.9542 41.14C42.7942 39.5 43.4342 38.22 43.8742 37.3C44.3142 36.38 44.5942 35.84 44.7142 35.68C45.3142 35.48 46.0542 35.5 46.9342 35.74C47.8142 35.94 48.2942 36.32 48.3742 36.88C48.6142 37.28 48.6142 38.04 48.3742 39.16C48.1342 40.24 47.6542 41.48 46.9342 42.88C46.3742 44.24 45.8342 45.56 45.3142 46.84C44.8342 48.12 44.5342 49.2 44.4142 50.08C44.3342 50.96 44.5742 51.5 45.1342 51.7C45.4942 51.9 46.0142 51.88 46.6942 51.64C47.4142 51.4 48.2542 50.68 49.2142 49.48C50.1742 48.28 51.1942 46.38 52.2742 43.78C52.5942 42.98 52.8342 42.28 52.9942 41.68C53.1542 41.04 53.2542 40.34 53.2942 39.58C53.2142 39.1 53.3342 38.6 53.6542 38.08C54.0142 37.56 54.4342 37.16 54.9142 36.88C55.0742 36.68 55.2942 36.5 55.5742 36.34C55.8542 36.14 56.0342 36.14 56.1142 36.34L57.0742 36.28C57.2342 36.24 57.4142 36.4 57.6142 36.76C57.8142 37.12 58.0142 37.38 58.2142 37.54C58.6542 37.9 58.8542 38.68 58.8142 39.88C58.7742 41.08 58.2942 42.76 57.3742 44.92C56.6142 46.56 56.0942 47.8 55.8142 48.64C55.5742 49.48 55.4342 50.3 55.3942 51.1C55.3942 51.82 55.4542 52.44 55.5742 52.96C55.6942 53.44 56.0542 53.94 56.6542 54.46C57.0942 54.74 57.3342 55.22 57.3742 55.9C57.4542 56.54 57.4742 57.1 57.4342 57.58C57.3542 57.94 57.0342 58.18 56.4742 58.3C55.9542 58.46 55.3742 58.5 54.7342 58.42C54.1342 58.34 53.6342 58.16 53.2342 57.88ZM62.4213 56.38C62.0613 56.1 61.6613 55.74 61.2213 55.3C60.8213 54.86 60.6813 54.24 60.8013 53.44C60.9213 52.32 61.0813 51.34 61.2813 50.5C61.4813 49.62 61.7213 48.62 62.0013 47.5C62.0813 47.02 62.2813 46.2 62.6013 45.04C62.9613 43.88 63.3813 42.62 63.8613 41.26C64.3413 39.9 64.8413 38.62 65.3613 37.42C65.8813 36.18 66.3413 35.26 66.7413 34.66C67.1813 34.26 67.8213 34.06 68.6613 34.06C69.5413 34.06 70.1413 34.22 70.4613 34.54C70.9013 34.9 71.0413 35.54 70.8813 36.46C70.7213 37.34 70.1613 38.72 69.2013 40.6C69.0013 41.08 68.7413 41.6 68.4213 42.16C68.1413 42.68 67.9413 43.12 67.8213 43.48C67.7013 43.8 67.7413 43.94 67.9413 43.9C68.1813 43.46 68.6213 42.96 69.2613 42.4C69.9013 41.8 70.5813 41.22 71.3013 40.66C72.0213 40.1 72.7013 39.6 73.3413 39.16C73.9813 38.72 74.4213 38.44 74.6613 38.32C74.9813 38.12 75.3413 37.96 75.7413 37.84C76.1813 37.68 76.4813 37.56 76.6413 37.48C77.5613 37.04 78.5613 36.88 79.6413 37C80.7613 37.08 81.4413 37.42 81.6813 38.02C81.7213 38.34 81.8413 38.58 82.0413 38.74C82.2813 38.9 82.4013 38.98 82.4013 38.98C82.5613 38.98 82.6413 39.04 82.6413 39.16C82.6813 39.28 82.7013 39.34 82.7013 39.34C82.7013 39.62 82.4213 40.02 81.8613 40.54C81.3413 41.06 80.7613 41.34 80.1213 41.38C79.6013 41.42 79.1413 41.52 78.7413 41.68C78.3413 41.84 77.8613 42.04 77.3013 42.28C75.7813 43.16 74.4013 43.94 73.1613 44.62C71.9613 45.3 70.7213 46.34 69.4413 47.74C69.1613 48.06 68.8613 48.36 68.5413 48.64C68.2213 48.92 67.9013 49.32 67.5813 49.84C67.3813 50.04 67.1813 50.48 66.9813 51.16C66.7813 51.84 66.6013 52.5 66.4413 53.14C66.3213 53.74 66.2613 54.1 66.2613 54.22C66.2613 54.22 66.2013 54.42 66.0813 54.82C65.9613 55.18 65.7613 55.54 65.4813 55.9C65.0013 56.54 64.5213 56.94 64.0413 57.1C63.6013 57.26 63.0613 57.02 62.4213 56.38ZM88.1824 69.64C87.7424 69.68 87.0624 69.58 86.1424 69.34C85.2224 69.14 84.3224 68.74 83.4424 68.14C82.3624 67.22 81.6224 66.46 81.2224 65.86C80.8224 65.26 80.6024 64.72 80.5624 64.24C80.5624 63.8 80.5824 63.4 80.6224 63.04C80.8224 62.16 81.2424 61.74 81.8824 61.78C82.5624 61.82 83.0824 62 83.4424 62.32C83.8424 62.64 84.2624 63.02 84.7024 63.46C85.1824 63.94 85.6424 64.36 86.0824 64.72C86.5624 65.08 86.9624 65.24 87.2824 65.2C88.0824 65.12 88.7424 64.78 89.2624 64.18C89.7824 63.62 90.3024 62.72 90.8224 61.48C91.1424 60.6 91.3824 59.84 91.5424 59.2C91.7424 58.56 91.9424 57.86 92.1424 57.1C92.3424 56.34 92.5824 55.32 92.8624 54.04C93.0624 53.12 93.2024 52.48 93.2824 52.12C93.4024 51.72 93.4624 51.48 93.4624 51.4C93.4624 51.28 93.4424 51.22 93.4024 51.22C93.4024 51.22 93.2624 51.3 92.9824 51.46C92.7024 51.62 92.3024 51.8 91.7824 52C91.3024 52.2 90.7624 52.4 90.1624 52.6C89.0424 52.96 87.9224 53.28 86.8024 53.56C85.6824 53.8 84.8224 53.82 84.2224 53.62C83.6224 53.38 83.1424 52.98 82.7824 52.42C82.4224 51.86 82.1824 51.26 82.0624 50.62C81.9824 49.98 81.9624 49.46 82.0024 49.06C82.0824 48.74 82.2624 48.22 82.5424 47.5C82.8224 46.78 83.1424 46.02 83.5024 45.22C83.8624 44.42 84.2024 43.72 84.5224 43.12C84.8424 42.52 85.1024 42.2 85.3024 42.16C85.4624 42.08 85.6024 41.92 85.7224 41.68C85.8824 41.4 85.9624 41.18 85.9624 41.02C86.0024 40.86 86.1624 40.6 86.4424 40.24C86.7624 39.88 87.6624 39.18 89.1424 38.14C90.6224 36.74 91.9624 35.7 93.1624 35.02C94.3624 34.3 95.4624 33.9 96.4624 33.82C96.7424 33.86 97.0024 33.88 97.2424 33.88C97.5224 33.88 97.6624 33.88 97.6624 33.88C97.6624 33.88 97.8824 33.94 98.3224 34.06C98.7624 34.18 99.2024 34.34 99.6424 34.54C100.162 34.74 100.722 35.22 101.322 35.98C101.922 36.7 102.442 37.5 102.882 38.38C103.322 39.26 103.562 40.06 103.602 40.78C103.562 41.66 103.362 42.54 103.002 43.42C102.642 44.3 102.302 44.72 101.982 44.68C101.662 44.64 101.302 44.76 100.902 45.04C100.542 45.28 100.262 45.76 100.062 46.48C99.9424 46.64 99.8024 46.9 99.6424 47.26C99.4824 47.58 99.3024 47.9 99.1024 48.22C99.0624 48.42 98.9624 48.92 98.8024 49.72C98.6424 50.48 98.4424 51.34 98.2024 52.3C98.0024 53.22 97.8224 54.08 97.6624 54.88C97.5024 55.64 97.4024 56.14 97.3624 56.38C97.3224 56.54 97.2224 56.92 97.0624 57.52C96.9024 58.08 96.7024 58.72 96.4624 59.44C96.2624 60.16 96.0424 60.82 95.8024 61.42C95.6424 62.58 95.3224 63.58 94.8424 64.42C94.3624 65.3 93.8424 66.08 93.2824 66.76C92.3624 67.76 91.4424 68.46 90.5224 68.86C89.6424 69.3 88.8624 69.56 88.1824 69.64ZM87.0424 48.64C87.1624 48.96 87.4824 49.08 88.0024 49C88.5624 48.92 89.3224 48.74 90.2824 48.46C91.4424 47.98 92.3024 47.6 92.8624 47.32C93.4624 47.04 93.9224 46.68 94.2424 46.24C94.4824 45.92 94.7024 45.6 94.9024 45.28C95.1424 44.96 95.3624 44.68 95.5624 44.44C95.6424 44.36 95.7624 44.22 95.9224 44.02C96.1224 43.82 96.2824 43.64 96.4024 43.48C96.6424 43.32 96.8424 43.18 97.0024 43.06C97.2024 42.9 97.3824 42.76 97.5424 42.64C97.7424 42.56 97.9224 42.38 98.0824 42.1C98.2424 41.78 98.2824 41.46 98.2024 41.14C98.1624 40.86 97.9824 40.48 97.6624 40C97.3424 39.48 96.9024 39.08 96.3424 38.8C95.8224 38.48 95.2024 38.7 94.4824 39.46C93.8024 40.22 92.7024 41.24 91.1824 42.52C90.3024 43.48 89.5224 44.38 88.8424 45.22C88.1624 46.02 87.6624 46.72 87.3424 47.32C87.0224 47.88 86.9224 48.32 87.0424 48.64ZM110.818 59.08C108.618 59.08 106.918 58.44 105.718 57.16C104.558 55.88 103.978 53.92 103.978 51.28C103.978 49.84 104.238 48.26 104.758 46.54C105.318 44.82 106.038 43.14 106.918 41.5C107.838 39.86 108.838 38.44 109.918 37.24C110.998 36 112.078 35.14 113.158 34.66C113.558 34.46 113.978 34.32 114.418 34.24C114.898 34.12 115.358 34.06 115.798 34.06C116.278 34.06 116.798 34.1 117.358 34.18C117.958 34.22 118.518 34.34 119.038 34.54C119.958 34.82 120.758 35.36 121.438 36.16C122.158 36.96 122.518 38.12 122.518 39.64C122.518 40.04 122.478 40.48 122.398 40.96C122.318 41.4 122.178 41.84 121.978 42.28C121.458 43.6 120.658 44.86 119.578 46.06C118.538 47.26 117.438 48.1 116.278 48.58C115.958 48.74 115.638 48.86 115.318 48.94C115.038 48.98 114.738 49 114.418 49C113.578 49 112.818 48.88 112.138 48.64C111.498 48.4 110.898 48.08 110.338 47.68L109.858 47.26L109.558 47.86C109.278 48.62 109.078 49.26 108.958 49.78C108.878 50.3 108.838 50.68 108.838 50.92C108.838 51.4 108.858 51.9 108.898 52.42C108.938 52.9 109.058 53.3 109.258 53.62C109.418 53.82 109.618 53.98 109.858 54.1C110.138 54.22 110.478 54.28 110.878 54.28C111.118 54.28 111.338 54.28 111.538 54.28C111.778 54.24 111.978 54.2 112.138 54.16C112.858 54 113.438 53.74 113.878 53.38C114.358 52.98 114.858 52.64 115.378 52.36L115.618 52.24L115.558 52.06C116.238 51.7 116.698 51.48 116.938 51.4C117.178 51.28 117.358 51.18 117.478 51.1C117.638 50.94 117.818 50.86 118.018 50.86C118.578 50.78 119.118 50.94 119.638 51.34C120.198 51.7 120.478 52.16 120.478 52.72C120.478 52.96 120.298 53.34 119.938 53.86C119.618 54.38 119.198 54.9 118.678 55.42C118.198 55.9 117.698 56.28 117.178 56.56C117.058 56.6 116.938 56.66 116.818 56.74C116.698 56.78 116.578 56.84 116.458 56.92H116.518C116.158 57.4 115.798 57.64 115.438 57.64H114.958C114.798 57.92 114.278 58.22 113.398 58.54C112.518 58.9 111.658 59.08 110.818 59.08ZM113.938 44.62C114.298 44.62 114.618 44.56 114.898 44.44C115.218 44.32 115.518 44.18 115.798 44.02C116.758 43.34 117.378 42.46 117.658 41.38C117.938 40.3 117.838 39.48 117.358 38.92C117.278 38.8 117.178 38.72 117.058 38.68C116.938 38.6 116.798 38.56 116.638 38.56C116.198 38.56 115.698 38.7 115.138 38.98C114.618 39.26 114.098 39.66 113.578 40.18C113.058 40.7 112.578 41.32 112.138 42.04L111.358 43.3C111.438 43.26 111.498 43.24 111.538 43.24C111.618 43.2 111.678 43.18 111.718 43.18C112.078 43.18 112.318 43.3 112.438 43.54C112.558 43.78 112.698 44.02 112.858 44.26C113.058 44.5 113.418 44.62 113.938 44.62ZM126.597 57.1C126.317 57.1 125.937 56.9 125.457 56.5C125.017 56.1 124.757 55.74 124.677 55.42C124.557 55.1 124.557 54.64 124.677 54.04C124.837 53.4 125.057 52.66 125.337 51.82C125.657 50.5 125.877 49.54 125.997 48.94C126.117 48.34 126.237 47.82 126.357 47.38C126.477 46.94 126.637 46.3 126.837 45.46C127.077 44.94 127.257 44.44 127.377 43.96C127.537 43.44 127.697 42.92 127.857 42.4C128.057 41.88 128.277 41.36 128.517 40.84C128.797 39.8 129.137 38.82 129.537 37.9C129.977 36.94 130.397 36.14 130.797 35.5C130.877 35.38 131.057 35.16 131.337 34.84C131.617 34.52 131.837 34.36 131.997 34.36C132.317 34.04 132.757 33.94 133.317 34.06C133.877 34.14 134.357 34.34 134.757 34.66C135.237 35.18 135.497 35.8 135.537 36.52C135.617 37.2 135.337 38.16 134.697 39.4C134.217 40.64 133.757 41.62 133.317 42.34C132.917 43.02 132.517 43.82 132.117 44.74C132.557 44.1 133.097 43.44 133.737 42.76C134.377 42.08 134.877 41.54 135.237 41.14C135.757 40.58 136.237 40.14 136.677 39.82C137.157 39.46 137.797 39.02 138.597 38.5C139.277 38.02 139.957 37.58 140.637 37.18C141.357 36.78 142.217 36.66 143.217 36.82C143.617 36.78 144.037 36.98 144.477 37.42C144.957 37.86 145.317 38.44 145.557 39.16C145.837 39.84 145.837 40.58 145.557 41.38C144.637 41.18 143.817 41.22 143.097 41.5C142.377 41.74 141.757 42.04 141.237 42.4C140.757 42.76 140.377 43.04 140.097 43.24C139.697 43.48 139.237 43.8 138.717 44.2C138.197 44.56 137.637 44.98 137.037 45.46C136.437 45.9 135.797 46.4 135.117 46.96C134.157 47.76 133.437 48.46 132.957 49.06C132.477 49.66 132.097 50.3 131.817 50.98C131.577 51.58 131.277 52.3 130.917 53.14C130.557 53.98 130.217 54.74 129.897 55.42C129.577 56.06 129.317 56.46 129.117 56.62C128.917 57.02 128.497 57.24 127.857 57.28C127.257 57.32 126.837 57.26 126.597 57.1ZM181.698 60.22C181.698 60.22 181.578 60.1 181.338 59.86C181.138 59.66 180.698 59.4 180.018 59.08C179.298 58.32 178.818 57.16 178.578 55.6C178.378 54.04 178.338 52.3 178.458 50.38C178.378 49.42 178.378 48.24 178.458 46.84C178.578 45.4 178.738 43.92 178.938 42.4C179.178 40.88 179.418 39.42 179.658 38.02C179.938 36.62 180.178 35.46 180.378 34.54C180.898 32.42 181.358 30.56 181.758 28.96C182.198 27.36 182.418 26.42 182.418 26.14C182.178 26.58 181.818 27.2 181.338 28C180.898 28.8 180.258 29.94 179.418 31.42C178.898 32.26 178.338 33.18 177.738 34.18C177.178 35.18 176.818 35.78 176.658 35.98C176.258 36.5 175.858 37.22 175.458 38.14C175.058 39.02 174.398 40.34 173.478 42.1C172.078 44.18 170.878 45.76 169.878 46.84C168.918 47.92 168.058 48.64 167.298 49C166.578 49.32 165.858 49.42 165.138 49.3C163.978 49.02 163.198 48.48 162.798 47.68C162.398 46.84 162.118 45.88 161.958 44.8C161.878 43.72 161.858 42.84 161.898 42.16C161.978 41.44 161.978 40.92 161.898 40.6C161.978 40.2 162.058 39.78 162.138 39.34C162.218 38.86 162.278 38.5 162.318 38.26C162.318 38.1 162.358 37.74 162.438 37.18C162.558 36.62 162.638 36.06 162.678 35.5C162.798 34.74 162.958 33.86 163.158 32.86C163.358 31.82 163.538 30.88 163.698 30.04C163.858 29.2 163.898 28.68 163.818 28.48C163.618 28.88 163.378 29.3 163.098 29.74C162.818 30.18 162.618 30.5 162.498 30.7C161.818 31.62 161.018 33.04 160.098 34.96C159.178 36.84 157.938 39.38 156.378 42.58C156.258 43.46 155.898 44.58 155.298 45.94C154.738 47.26 154.238 48.44 153.798 49.48C153.518 50.24 153.138 51.2 152.658 52.36C152.218 53.48 151.758 54.54 151.278 55.54C150.838 56.54 150.478 57.24 150.198 57.64C149.718 58.56 149.318 59.06 148.998 59.14C148.678 59.26 148.018 58.94 147.018 58.18C146.378 57.58 145.838 57 145.398 56.44C144.998 55.88 144.998 55.22 145.398 54.46C145.678 54.02 146.018 53.42 146.418 52.66C146.818 51.86 147.178 51.06 147.498 50.26C147.858 49.46 148.058 48.86 148.098 48.46C148.138 48.3 148.258 48.02 148.458 47.62C148.698 47.22 149.018 46.78 149.418 46.3C149.378 46.14 149.558 45.54 149.958 44.5C150.358 43.42 150.898 42.2 151.578 40.84C151.698 40.64 151.778 40.44 151.818 40.24C151.898 40.04 151.958 39.84 151.998 39.64C152.158 39.44 152.318 39.2 152.478 38.92C152.638 38.64 152.798 38.24 152.958 37.72C153.038 37.36 153.198 36.9 153.438 36.34C153.678 35.78 153.898 35.28 154.098 34.84C154.258 34.48 154.438 34.18 154.638 33.94C154.878 33.66 155.078 33.38 155.238 33.1C155.398 32.98 155.538 32.78 155.658 32.5C155.778 32.22 155.918 32 156.078 31.84C156.238 31.36 156.538 30.76 156.978 30.04C157.458 29.28 157.958 28.44 158.478 27.52C159.038 26.6 159.518 25.68 159.918 24.76C160.238 24.56 160.518 24.28 160.758 23.92C160.998 23.56 161.198 23.18 161.358 22.78C161.358 22.78 161.458 22.56 161.658 22.12C161.898 21.68 162.138 21.3 162.378 20.98C162.578 20.7 162.878 20.3 163.278 19.78C163.678 19.26 164.058 18.78 164.418 18.34C164.818 17.86 165.078 17.6 165.198 17.56C165.438 17.52 165.858 17.64 166.458 17.92C167.098 18.2 167.678 18.54 168.198 18.94C168.718 19.34 168.978 19.74 168.978 20.14C169.058 20.58 169.078 21.22 169.038 22.06C169.038 22.9 169.018 23.76 168.978 24.64C168.938 25.48 168.858 26.2 168.738 26.8C168.658 27.68 168.538 28.7 168.378 29.86C168.218 31.02 168.058 32.14 167.898 33.22C167.738 34.3 167.598 35.18 167.478 35.86C167.278 37.34 167.118 38.46 166.998 39.22C166.878 39.94 166.818 40.3 166.818 40.3C166.898 40.46 166.938 40.68 166.938 40.96C166.978 41.24 167.018 41.5 167.058 41.74L167.118 42.22L167.778 41.26C168.498 40.34 169.058 39.54 169.458 38.86C169.858 38.18 170.258 37.52 170.658 36.88C170.658 36.68 170.718 36.48 170.838 36.28C170.958 36.04 171.098 35.8 171.258 35.56C171.498 35.36 171.758 35.04 172.038 34.6C172.318 34.12 172.438 33.7 172.398 33.34C172.798 32.74 173.318 31.94 173.958 30.94C174.638 29.94 175.358 28.86 176.118 27.7C176.878 26.5 177.618 25.36 178.338 24.28C179.098 23.16 179.758 22.2 180.318 21.4C180.918 20.6 181.358 20.08 181.638 19.84C182.518 19.28 183.498 19 184.578 19C185.658 18.96 186.518 19.28 187.158 19.96C187.678 20.52 187.958 21.16 187.998 21.88C188.078 22.6 187.998 23.34 187.758 24.1C187.238 25.82 186.878 27.42 186.678 28.9C186.478 30.38 186.398 31.4 186.438 31.96C186.278 32.32 186.138 32.72 186.018 33.16C185.938 33.56 185.878 33.92 185.838 34.24C185.838 34.64 185.758 35.06 185.598 35.5C185.478 35.9 185.318 36.18 185.118 36.34C185.238 36.7 185.298 37.18 185.298 37.78C185.338 38.34 185.318 38.86 185.238 39.34C184.598 43.42 184.258 46.68 184.218 49.12C184.178 51.52 184.318 53.26 184.638 54.34C184.958 55.38 185.298 55.94 185.658 56.02C185.818 55.98 185.898 56.04 185.898 56.2C185.938 56.36 185.918 56.6 185.838 56.92C185.838 57.24 185.678 57.6 185.358 58C185.078 58.44 184.778 58.82 184.458 59.14C184.178 59.5 183.998 59.74 183.918 59.86C183.678 60.26 183.458 60.48 183.258 60.52C183.098 60.56 182.578 60.46 181.698 60.22ZM193.669 56.92C193.189 57.04 192.649 56.9 192.049 56.5C191.449 56.1 190.909 55.6 190.429 55C189.949 54.4 189.649 53.86 189.529 53.38C189.369 52.54 189.409 51.52 189.649 50.32C189.929 49.08 190.389 47.78 191.029 46.42C191.669 45.02 192.469 43.66 193.429 42.34C194.389 40.98 195.469 39.76 196.669 38.68C197.869 37.6 199.169 36.76 200.569 36.16C201.169 35.84 201.589 35.64 201.829 35.56C202.069 35.44 202.309 35.44 202.549 35.56C202.789 35.64 203.209 35.84 203.809 36.16C204.369 36.32 204.929 36.52 205.489 36.76C206.089 36.96 206.609 37.36 207.049 37.96C207.369 38.56 207.609 39.16 207.769 39.76C207.929 40.36 208.069 41.04 208.189 41.8C208.509 42.8 208.629 43.46 208.549 43.78C208.469 44.06 208.349 44.28 208.189 44.44C207.869 44.84 207.789 45.04 207.949 45.04C207.949 45.04 207.929 45.12 207.889 45.28C207.889 45.4 207.809 45.6 207.649 45.88C207.369 46.76 207.149 47.6 206.989 48.4C206.869 49.16 206.889 49.84 207.049 50.44C207.369 51.32 207.789 51.84 208.309 52C208.869 52.16 209.589 51.8 210.469 50.92C210.909 50.6 211.409 50.4 211.969 50.32C212.529 50.2 212.809 50.3 212.809 50.62C212.809 50.62 212.869 50.68 212.989 50.8C213.109 50.88 213.249 50.92 213.409 50.92C213.609 50.92 213.689 51.12 213.649 51.52C213.609 51.88 213.529 52.3 213.409 52.78C213.289 53.26 213.129 53.66 212.929 53.98C212.329 54.58 212.029 54.98 212.029 55.18C212.029 55.18 211.949 55.26 211.789 55.42C211.669 55.54 211.449 55.74 211.129 56.02C210.409 56.46 209.489 56.68 208.369 56.68C207.289 56.68 206.449 56.46 205.849 56.02C205.249 55.58 204.649 55.04 204.049 54.4C203.489 53.76 203.129 53.16 202.969 52.6L202.669 52L200.929 53.14C200.489 53.58 200.169 53.92 199.969 54.16C199.769 54.36 199.589 54.54 199.429 54.7C199.309 54.86 199.169 55 199.009 55.12C198.889 55.24 198.749 55.3 198.589 55.3C198.429 55.3 198.289 55.3 198.169 55.3C198.049 55.3 197.989 55.3 197.989 55.3C197.989 55.46 197.709 55.68 197.149 55.96C196.589 56.2 195.969 56.42 195.289 56.62C194.609 56.82 194.069 56.92 193.669 56.92ZM194.929 51.88C195.169 51.88 195.529 51.74 196.009 51.46C196.529 51.14 197.089 50.76 197.689 50.32C198.289 49.88 198.829 49.44 199.309 49C199.829 48.56 200.209 48.2 200.449 47.92C200.609 47.76 200.789 47.5 200.989 47.14C201.229 46.78 201.489 46.46 201.769 46.18C202.689 45.14 203.269 44.32 203.509 43.72C203.749 43.08 203.649 42.4 203.209 41.68C203.049 41.24 202.849 41 202.609 40.96C202.369 40.92 201.869 41.06 201.109 41.38C200.629 41.66 200.109 42.12 199.549 42.76C198.989 43.4 198.409 44.12 197.809 44.92C197.249 45.72 196.729 46.54 196.249 47.38C195.769 48.22 195.369 48.98 195.049 49.66C194.769 50.34 194.629 50.88 194.629 51.28C194.629 51.44 194.669 51.58 194.749 51.7C194.869 51.82 194.929 51.88 194.929 51.88ZM232.726 58.72C232.566 58.72 232.346 58.7 232.066 58.66C231.826 58.62 231.626 58.52 231.466 58.36C231.306 58.36 231.026 58.3 230.626 58.18C230.226 58.06 229.866 57.92 229.546 57.76C229.146 57.6 228.606 57.28 227.926 56.8C227.246 56.28 226.566 55.72 225.886 55.12C225.206 54.52 224.626 53.96 224.146 53.44C223.706 52.92 223.486 52.54 223.486 52.3C223.486 52.1 223.386 52 223.186 52C223.186 52 223.126 51.94 223.006 51.82C222.886 51.66 222.826 51.5 222.826 51.34C222.826 50.94 222.626 50.74 222.226 50.74C222.226 50.74 221.946 51.02 221.386 51.58C220.866 52.14 220.206 52.82 219.406 53.62C218.286 54.74 217.446 55.56 216.886 56.08C216.366 56.56 215.946 56.8 215.626 56.8C215.306 56.8 214.886 56.66 214.366 56.38C213.886 56.06 213.446 55.64 213.046 55.12C212.686 54.6 212.506 53.98 212.506 53.26C212.506 53.26 212.906 52.8 213.706 51.88C214.546 50.96 215.526 50.02 216.646 49.06L219.706 45.94L219.046 43.66C218.766 43.02 218.466 42.36 218.146 41.68C217.866 40.96 217.646 40.36 217.486 39.88C217.006 39.2 216.746 38.78 216.706 38.62C216.706 38.42 216.866 38.08 217.186 37.6C217.506 37.28 218.026 36.96 218.746 36.64C219.506 36.28 220.126 36.26 220.606 36.58C220.846 36.58 221.166 36.92 221.566 37.6C221.966 38.24 222.326 38.96 222.646 39.76C223.006 40.52 223.186 41.06 223.186 41.38C223.186 42.02 223.306 42.36 223.546 42.4C223.826 42.44 224.446 42.14 225.406 41.5C225.886 41.06 226.266 40.7 226.546 40.42C226.826 40.1 226.966 39.94 226.966 39.94C227.086 39.82 227.446 39.52 228.046 39.04C228.646 38.56 229.266 38.06 229.906 37.54C230.546 37.02 230.966 36.72 231.166 36.64C231.486 36.4 231.886 36.4 232.366 36.64C232.846 36.84 233.266 37.16 233.626 37.6C234.026 38 234.226 38.42 234.226 38.86C234.226 39.34 234.086 39.88 233.806 40.48C233.526 41.04 232.986 41.54 232.186 41.98C231.466 42.5 230.906 42.92 230.506 43.24C230.146 43.56 229.766 43.92 229.366 44.32C228.966 44.68 228.326 45.24 227.446 46L225.886 47.26L226.846 48.88C227.006 49.16 227.226 49.48 227.506 49.84C227.826 50.2 228.126 50.46 228.406 50.62C228.646 50.94 229.066 51.36 229.666 51.88C230.266 52.36 230.846 52.8 231.406 53.2C231.966 53.6 232.286 53.8 232.366 53.8C232.526 53.8 232.706 53.86 232.906 53.98C233.106 54.1 233.346 54.24 233.626 54.4C233.946 54.72 234.086 55.24 234.046 55.96C234.006 56.64 233.846 57.28 233.566 57.88C233.326 58.44 233.046 58.72 232.726 58.72Z" fill="url(#paint0_linear_94_553)"/>
<path d="M0.811028 68.4126C0.847826 68.3815 0.884178 68.3512 0.92203 68.3203C2.77731 66.9094 4.82471 66.4775 6.27409 66.2772C6.74611 66.2177 6.57013 66.5053 6.89464 66.4792C7.515 66.4339 8.05222 66.21 8.65287 66.217C8.85025 66.2211 8.67762 66.6344 8.8819 66.6306C10.0002 66.6099 10.9974 66.3809 12.0823 66.3393C17.3936 66.1633 22.3864 66.1773 27.5054 66.0404C27.9723 66.0286 28.47 66.0359 28.978 66.0462C30.341 66.07 31.7903 66.1417 33.065 65.9786C33.2701 65.9519 33.1335 65.6258 33.1716 65.5968C33.7778 65.1527 33.5981 65.8303 34.0049 65.9034C35.6207 66.1924 37.3964 66.1788 38.9361 66.0325C39.5896 65.9696 38.9282 65.3178 39.5881 65.6811C39.634 65.7057 39.4712 66.0593 39.6514 66.0953C40.0678 66.1758 40.8266 66.1098 41.1508 66.1378C41.7629 66.1935 41.8535 66.1903 42.4362 66.1975C43.2189 66.2108 44.1524 66.3978 45.0013 66.3355C45.1806 66.3211 44.9514 65.9552 45.2378 65.8998C45.5293 65.8444 46.2894 65.8944 46.5447 65.9874C46.8019 66.0801 46.6825 66.3605 46.7264 66.4269C47.0816 66.9862 47.9879 66.2576 48.1016 66.2436C50.1826 66.0037 51.938 66.5359 53.8774 66.6836C55.348 66.7969 56.9331 66.7982 58.3829 67.0163C58.5041 67.035 58.6477 67.0587 58.7625 67.08C60.1766 67.3381 61.4516 67.6559 62.9202 67.7906C63.0876 67.8061 62.9403 67.3626 63.1415 67.3802C65.3063 67.5701 67.4536 67.8214 69.5973 68.2943C69.8145 68.3422 69.499 68.6891 69.7147 68.7592C71.0116 69.1795 73.0756 70.079 73.9868 68.5185C74.8872 68.6493 75.9736 68.7918 76.76 69.1729C77.2334 69.4016 76.7999 69.7393 77.2713 69.6792C77.3052 69.6748 77.3438 69.6682 77.3877 69.6593C77.5334 69.6301 77.3707 69.2633 77.5864 69.2461C78.4935 69.1738 79.4725 69.3371 80.3789 69.1895C80.5621 69.1587 80.5253 68.8383 80.5791 68.783C81.0296 68.336 81.7293 69.1292 81.8847 69.1903C83.0801 69.6475 83.9754 69.5111 85.1036 69.5592C85.3675 69.5706 85.0691 69.1323 85.3249 69.128C86.6371 69.1109 87.9982 69.1982 89.2798 69.4416C89.5687 69.4969 89.2875 69.85 89.4225 69.895C90.0102 70.0889 90.18 69.4071 90.7501 69.5813C90.872 69.6173 90.7886 69.9259 90.8096 69.9612C91.1358 70.5143 91.4655 69.7664 91.5589 69.7539C92.7005 69.5768 93.3848 70.4075 94.4861 70.3517C94.6165 70.3442 94.3464 69.9347 94.7087 69.9376C95.6691 69.9454 96.6262 69.9884 97.6128 70.0676C99.1418 70.1909 100.677 70.3984 102.139 70.6805C102.515 70.752 102.228 71.0317 102.249 71.0696C102.595 71.6631 102.891 70.9141 103.016 70.8929C103.998 70.745 104.862 71.4415 105.57 70.5718C109.643 71.1411 113.747 70.8869 117.751 71.9518C117.802 71.9645 117.687 72.3351 117.788 72.3586C119.01 72.6459 118.813 72.0467 119.674 71.3814C119.891 71.2143 120.466 72.1163 120.519 72.183C120.707 72.4286 120.463 72.9757 120.528 73.025C121.069 73.4139 121.088 71.5567 121.845 71.6019C121.868 71.6064 121.748 71.9412 121.81 71.9789C122.001 72.0973 122.205 71.9736 122.391 72.1026C122.816 72.4006 122.919 73.3099 123.626 72.8266C123.716 72.7637 123.649 71.7057 124.321 71.7955C124.588 71.8323 125.782 71.8848 126.112 71.9724C126.441 72.06 126.192 72.385 126.215 72.4011C127.088 72.9014 126.737 73.0669 127.149 73.7559C127.561 74.4423 127.528 72.8603 127.721 72.6952C127.916 72.5307 128.553 72.938 128.708 73.0757C128.863 73.2134 128.648 73.4169 128.788 73.4979C129.717 74.0275 129.252 72.7402 129.581 72.5082C130.356 71.9586 130.869 73.159 131.541 73.3113C131.723 73.3524 131.588 73.0781 131.752 73.0623C132.407 73.0033 132.776 73.3892 133.531 73.0952C133.655 73.0474 134.289 72.3774 134.647 72.9134C134.697 72.9906 134.527 73.2734 134.799 73.3533C135.207 73.4733 135.948 73.5763 136.395 73.502C136.727 73.4471 136.376 72.9478 136.781 73.1183C136.961 73.1943 136.606 73.4573 136.946 73.5768C137.284 73.6961 138.157 73.7283 138.493 73.7354C138.826 73.7422 138.662 73.3691 138.69 73.346C138.861 73.2138 139.504 73.0698 139.562 73.073C141.061 73.1233 142.493 73.3501 143.912 73.5392C145.198 73.7095 146.46 73.8488 147.78 73.8035C147.997 73.7964 147.868 73.407 147.901 73.4019C148.648 73.2693 148.024 74.2679 148.533 74.6292C148.487 73.8472 148.791 74.0001 149.315 73.9335C149.567 73.9008 149.442 73.5942 149.466 73.5641C149.857 73.1194 150.098 73.7204 150.161 73.8438C150.394 74.2979 150.681 73.7809 150.838 74.0842C150.997 74.3855 150.591 74.8104 151.098 74.8218C151.249 74.5476 150.899 73.8062 151.286 73.7008C152.738 73.3032 155.408 73.9515 156.565 74.0376C157.713 74.1246 158.093 74.0808 158.764 74.1955C159.977 74.402 159.539 73.8521 160.301 73.6181C161.06 73.3835 160.67 74.7083 160.774 74.9964C160.874 75.2842 160.999 74.9917 161.13 75.151C161.26 75.3104 160.969 75.5004 161.281 75.5644C161.594 75.6284 162.454 75.1315 162.57 74.8335C162.811 74.2025 162.437 73.5325 163.256 73.7763C163.304 73.7908 163.144 74.139 163.327 74.1765C164.767 74.4629 166.267 74.4907 167.709 74.733C167.908 74.7668 167.729 75.1558 167.845 75.1799C169.047 75.4313 168.62 74.7737 169.278 74.0443C169.131 75.015 169.494 75.6096 170.41 75.6129C170.956 75.615 170.865 75.1912 171.218 74.8908C171.324 74.8003 171.711 75.0894 171.782 74.8895C172.01 74.2362 171.642 73.5093 172.581 73.7933C172.622 73.8068 172.495 74.1646 172.636 74.1851C173.561 74.3191 173.665 73.6363 174.656 73.5425C175.436 73.4688 176.828 73.864 177.717 73.915C177.719 75.0067 178.554 74.7411 178.88 73.9814C179.317 73.9959 179.787 73.9665 180.228 73.9919C180.368 73.9997 180.506 74.013 180.639 74.0346C180.832 74.0654 180.713 74.3843 180.738 74.4179C181.121 74.9444 181.355 74.206 181.479 74.1741C182.82 73.8603 183.936 74.3822 185.204 73.796C185.249 73.7749 185.295 73.0148 185.66 73.5558C185.683 73.5931 185.27 73.9531 185.877 73.958C186.482 73.9632 187.64 74.3249 188.466 73.9368C188.664 73.8435 189.152 73.2057 189.585 73.6666C189.643 73.7292 189.593 73.9493 189.679 74.0664C189.955 74.4392 190.056 73.6672 190.39 74.3025C190.725 74.9376 191.38 75.393 192.206 74.8973C192.233 74.8827 192.399 74.2652 192.666 74.2595C193.093 74.251 193.705 74.3411 194.149 74.3093C194.362 74.2937 194.202 73.9259 194.238 73.9167C195.654 73.6148 196.69 73.8796 198.234 73.906C198.517 73.9117 199.28 73.3344 199.857 73.6933C200.491 74.0854 200.035 75.985 201.376 75.4231C201.919 75.1968 202.397 72.794 203.506 73.9075C204.108 73.7518 204.703 73.6882 205.298 73.6527C206.575 73.5765 207.847 73.6315 209.129 73.1827C209.213 73.1535 209.409 72.4698 209.613 72.454C209.917 72.4319 210.119 72.7158 210.338 72.7094C211.253 72.6898 212.047 72.3248 212.922 72.2521C213.254 72.2238 213.18 72.5531 213.577 72.5189C213.973 72.4842 214.181 72.0359 214.741 72.164C215.164 72.2621 215.682 73.0526 216.232 73.0776C216.138 72.2414 216.508 72.2084 217.13 71.8977C217.25 71.8375 217.075 71.5663 217.129 71.5229C217.35 71.3398 217.607 71.5489 217.813 71.354C217.863 71.3071 217.826 71.0223 217.865 70.9679C218.193 70.4947 218.921 71.0439 219.047 71.1396C219.527 71.5027 219.671 71.1046 220.017 71.2249C220.363 71.3451 219.911 71.6225 220.302 71.6694C221.112 71.7662 222.107 71.5742 222.9 71.4708C223.216 71.4278 222.945 71.0801 222.989 71.0652C223.628 70.8728 224.347 71.1784 224.597 70.3692C225.34 72.2553 224.962 70.1213 225.953 70.3731C226.031 70.3938 226.262 71.3035 226.001 71.4812C225.739 71.6589 225.268 71.4339 224.908 71.7036C224.822 71.767 224.42 72.7115 224.354 72.7747C223.846 73.2688 223.562 71.8998 223.521 71.8285C223.059 71.0605 222.548 72.0886 222.386 72.1781C221.646 72.5881 220.953 72.4904 220.328 72.7956C219.919 72.9936 220.007 73.9045 219.665 73.925C218.53 73.9933 217.964 72.7852 217.059 74.0271C216.865 74.292 217.227 75.2511 216.306 74.5844C216.248 74.5423 215.548 73.9125 215.26 74.4099C215.224 74.4726 215.264 74.761 215.209 74.7931C214.843 75.002 214.553 74.8066 214.145 74.9726C213.738 75.1386 213.25 75.3693 212.754 75.3336C212.455 75.3125 212.013 74.8218 211.857 74.7076C211.417 74.3776 211.072 75.0527 210.772 74.6229C210.469 74.1909 210.862 73.4302 210.183 73.2104C210.251 73.9642 210.291 74.7417 210.344 75.5017C208.925 75.6478 207.503 75.5662 206.083 75.7529C205.906 75.7768 206.131 76.1618 205.943 76.1978C205.818 76.2214 205.694 76.2359 205.571 76.2444C204.916 76.2895 204.292 76.1621 203.602 76.3278C202.969 76.4815 202.304 76.977 201.639 77.1461C201.149 76.3215 200.179 76.7017 199.446 76.6821C199.189 76.6757 199.188 76.4438 199.001 76.3832C198.298 76.1595 198.677 76.8966 198.5 77.0314C197.735 77.6061 197.536 75.8849 196.597 75.9956C196.548 76.001 196.001 76.9646 195.92 77.0276C195.409 77.438 195.809 76.7132 195.469 76.6677C194.848 76.5843 194.41 76.3916 193.709 76.7051C193.504 76.7978 193.036 77.4019 192.603 76.9806C192.546 76.9254 192.559 76.6191 192.515 76.6037C191.719 76.3499 191.752 77.3075 191.322 77.6553C190.892 78.003 190.168 77.3759 190.02 77.1919C189.631 76.7166 190.291 76.9678 190.308 76.9184C190.511 76.3315 190.018 76.4552 189.631 76.4245C189.531 75.4883 189.002 75.569 189.233 76.3961C189.26 76.4865 189.552 76.3852 189.631 76.4245C189.34 77.3614 188.753 77.5065 188.066 76.6728C187.744 76.2818 188.015 75.8 187.098 76.009C186.684 76.103 186.87 76.7435 186.506 76.9339C185.675 77.3683 184.556 76.8022 183.688 76.9236C183.373 76.9677 183.691 77.3125 183.477 77.3548C182.904 77.4681 182.392 77.2165 181.82 77.3678C181.768 77.3819 181.905 77.7493 181.726 77.7587C181.239 77.7868 180.779 77.7776 180.315 77.7554C179.491 77.7152 178.671 77.6328 177.761 77.6452C177.078 77.6549 175.852 77.8786 175.143 77.8462C173.911 77.7932 172.393 77.2666 171.343 77.4023C170.659 77.4892 170.807 77.8593 170.516 78.1131C169.951 78.605 168.945 77.7279 168.809 77.5918C168.806 77.5873 169.396 77.4998 169.081 77.3095C168.898 76.9127 168.816 77.59 168.809 77.5918C168.719 77.5043 167.541 77.418 167.309 77.4876C167.182 77.5259 167.252 77.8776 167.185 77.8909C165.608 78.1994 164.025 78.275 162.428 78.0894C162.4 78.0819 162.448 77.6894 162.382 77.6767C161.459 77.4894 160.858 77.9606 160.091 78.2327C159.318 78.5044 158.719 78.3966 158.279 77.7123C157.705 77.7853 156.884 77.468 156.415 77.2753C155.942 77.0826 155.857 77.8458 155.815 77.8599C154.501 78.3103 153.753 77.851 152.408 77.7413C151.765 77.6878 150.488 77.7565 149.789 77.8152C149.231 77.8629 148.916 77.6719 148.402 77.7675C148.332 77.7802 148.389 78.1233 148.367 78.1356C147.783 78.5215 148.087 77.6994 147.977 77.5464C147.577 76.9897 147.329 76.692 146.592 76.9172C146.424 76.9688 145.891 78.1474 145.582 78.2047C145.182 78.2771 145.346 77.8537 144.93 77.9404C144.895 77.9474 144.891 78.2127 144.637 78.1901C144.335 78.1643 144.026 78.1312 143.711 78.0955C142.801 77.992 141.85 77.8675 140.929 77.8435C140.76 77.8381 140.956 78.2686 140.712 78.2676C139.572 78.2632 138.318 78.1852 137.218 77.9317C136.947 77.8679 137.133 77.5826 137.079 77.4922C136.742 76.9451 136.183 77.6859 136.098 77.6961C134.044 77.9586 132.528 77.1791 130.439 77.3935C130.325 77.4067 129.411 78.1805 129.064 77.4526C129.04 77.4042 128.699 76.6603 128.332 77.1345C128.309 77.1642 128.526 77.5496 128.112 77.4878C127.698 77.426 127.014 77.6354 126.466 77.1936C126.292 77.0544 125.906 76.3092 125.333 76.8514C125.296 76.8895 124.384 78.1381 124.14 77.2249C124.1 77.0746 124.207 76.13 123.534 76.5774C123.405 76.6643 123.616 76.889 123.284 77.0016C122.773 77.1753 122.133 76.882 121.494 77.2671C121.383 77.3354 120.891 77.9512 120.558 77.441C120.505 77.361 120.633 77.0513 120.443 77.0042C119.538 76.7787 118.568 76.9318 117.656 76.656C117.334 76.5589 117.532 76.0578 117.198 75.8996C116.862 75.7414 116.185 75.5672 115.81 75.7786C115.437 75.9902 115.778 76.8295 115.237 76.8614C112.884 76.9999 110.612 76.3776 108.283 76.1622C107.938 76.1302 108.206 76.4396 107.697 76.4135C105.824 76.3183 102.565 76.3914 100.983 75.6746C99.7076 75.0998 101.379 74.8208 100.388 74.5586C99.9121 74.4334 99.3419 75.3508 99.2206 75.3735C98.4844 75.526 97.8944 75.3867 97.3143 75.2885C96.9808 75.2335 96.6491 75.191 96.2919 75.2172C96.08 75.2323 96.2658 75.6279 96.0839 75.6364C95.4675 75.6692 94.8338 75.4632 94.2593 75.4648C93.9945 75.466 94.0268 75.762 93.7872 75.727C93.2229 75.6471 92.715 75.4982 92.1685 75.1961C92.1182 75.1686 92.4831 74.8201 92.0551 74.7859C91.377 74.7325 90.5216 74.4213 89.7219 74.668C89.48 74.7421 89.4512 75.413 88.9608 74.9284C88.8591 74.8273 89.0238 74.0266 88.4125 74.6994C88.3026 74.8107 87.2851 75.7116 86.8212 75.0885C86.6981 74.9243 86.3991 74.253 86.1093 74.3466C86.0706 74.3618 86.2106 74.7277 85.9763 74.7547C85.1454 74.8432 84.2848 74.7764 83.4237 74.8615C83.1935 74.885 83.5219 75.2692 83.1806 75.2922C82.2457 75.3563 81.0665 75.2225 80.1381 75.0678C79.7944 75.0099 80.046 74.7107 80.0222 74.676C79.6431 74.1125 79.3716 74.8397 79.2351 74.8765C78.3844 75.0952 77.7592 74.713 76.9744 74.7535C76.9586 74.7542 76.9447 74.7568 76.9323 74.7609C76.7784 74.8144 76.8838 75.1273 76.8429 75.1537C76.3883 75.4309 76.7536 74.8213 76.4849 74.7333C75.7403 74.485 74.8792 74.4528 74.1093 74.4416C73.8221 74.4376 74.1134 74.8686 73.8563 74.8604C72.3441 74.8196 70.775 74.6561 69.3256 74.3059C69.0529 74.2392 69.2535 73.9407 69.2018 73.8641C68.844 73.3289 68.2043 73.9606 68.0632 74.0135C67.4268 74.2558 67.2171 73.9572 66.6692 73.9581C64.0055 73.9672 60.7835 73.446 58.2168 72.958C58.1059 72.9366 57.976 72.9117 57.8653 72.8891C55.2165 72.3698 52.7406 71.9274 49.8754 71.8479C49.6876 71.8429 49.8558 72.2704 49.6935 72.2716C47.5724 72.2673 45.4997 72.0428 43.3713 72.1382C43.1956 72.1454 43.4443 72.5449 43.1621 72.5699C42.5945 72.624 41.8632 72.5985 41.2875 72.4719C41.0037 72.411 41.3848 72.0704 41.0983 72.0161C40.435 71.889 39.7163 71.8654 39.04 71.9373C38.7495 71.9689 39.1933 72.369 38.8155 72.3786C36.2487 72.4538 33.7404 72.6091 31.1185 72.2275C30.9386 72.2013 30.7325 71.3868 30.3648 71.5669C30.3499 71.797 30.3674 72.0657 30.3695 72.3106C30.0446 72.3415 29.7181 72.3701 29.3899 72.397C25.8564 72.6841 22.3845 72.5844 18.9382 72.7512C18.7798 72.759 19.0794 73.1786 18.7735 73.196C16.9937 73.299 15.3035 73.5403 13.5084 73.288C13.3308 73.264 13.3361 72.4893 12.8336 72.6616C12.748 72.6913 11.982 72.8852 11.8118 73.0769C11.7884 73.1053 11.9732 73.443 11.7289 73.4854C10.3223 73.7259 8.88863 73.8892 7.62496 74.0156C7.42415 74.0351 7.52344 73.6095 7.37788 73.621C6.45676 73.6989 5.69036 74.2328 5.21078 74.3746C5.07224 74.4407 4.93213 74.4985 4.78816 74.5466C4.06107 74.7908 3.88726 74.0994 3.17462 73.8254C3.07145 73.7875 2.70624 74.0611 2.44768 73.7864C1.7865 73.0988 1.31912 72.1346 0.595551 71.417C0.445075 71.2516 -0.0236944 71.9697 0.000942707 71.2491C0.00706971 71.1938 0.336807 70.6949 0.331647 70.4742C0.330296 70.3178 -0.0439334 70.1224 0.01341 69.8763C0.0722605 69.6298 0.435429 69.7575 0.572477 69.4239C0.709051 69.0894 0.34233 68.8126 0.811028 68.4126ZM154.301 76.4103C153.873 76.0306 153.769 77.3741 154.253 77.0657C154.277 77.0492 154.323 76.429 154.301 76.4103ZM207.396 74.5529C206.759 74.0273 206.464 74.9376 206.918 75.3487C207.373 75.759 207.591 74.7119 207.396 74.5529ZM213.255 73.4004C212.53 73.0226 212.669 74.9291 213.333 74.4537C213.372 74.4267 213.297 73.4223 213.255 73.4004ZM4.53386 72.631C4.52191 72.615 4.25696 72.7581 4.26444 72.7769C4.37739 73.2099 4.85439 72.9538 4.53386 72.631ZM219.034 72.1335C218.791 71.9074 218.236 72.2867 218.538 72.5682C218.782 72.7947 219.336 72.4148 219.034 72.1335ZM131.522 73.9683C131.517 73.9479 131.265 73.9157 131.263 74.0292C131.26 74.3947 131.618 74.3115 131.522 73.9683ZM228.936 70.6513C227.462 70.8001 226.342 69.3737 227.961 69.3108C228.254 69.2993 227.414 69.9013 227.802 69.9867C228.512 70.142 228.81 69.0961 229.575 69.5175C229.713 69.5949 229.02 70.6463 228.933 70.6539C228.934 70.653 228.935 70.6522 228.936 70.6513ZM154.094 74.7872C154.086 74.7692 153.735 74.7422 153.725 74.7595C153.522 75.1811 154.231 75.2359 154.094 74.7872ZM116.789 72.2612C116.771 72.2222 115.962 72.1366 115.932 72.1697C115.464 72.8408 117.104 73.0162 116.789 72.2612ZM177.732 73.9438C178.108 73.5071 178.561 73.4475 178.878 73.9809C178.496 73.9601 178.116 73.9633 177.732 73.9438Z" fill="#BB0000"/>
<defs>
<linearGradient id="paint0_linear_94_553" x1="1.66798" y1="34.046" x2="275.668" y2="34.046" gradientUnits="userSpaceOnUse">
<stop offset="0.192605" stop-color="#EF640F"/>
<stop offset="0.5" stop-color="#BB0000"/>
<stop offset="0.9375" stop-color="#401D13"/>
</linearGradient>
</defs>
</svg>
