<svg width="107" height="107" viewBox="0 0 107 107" fill="none" xmlns="http://www.w3.org/2000/svg">
<path d="M36.5363 2.61013L55.7727 11.5976L76.9685 4.08058L84.4852 25.2754L103.585 34.5519L104.914 35.1974L104.289 36.5362L95.3011 55.7727L102.818 76.9685L81.6224 84.4855L72.3468 103.585L71.7013 104.914L70.3625 104.289L51.126 95.301L29.9302 102.818L22.4132 81.6223L3.31392 72.3468L1.98458 71.7013L2.61016 70.3624L11.5973 51.125L4.08062 29.9302L25.2764 22.4131L34.5519 3.31388L35.1974 1.98454L36.5363 2.61013ZM37.4066 87.1245L45.5263 84.2448L40.1911 69.201C38.2364 69.2031 36.3813 68.6553 34.6562 67.5715C32.5667 66.2587 31.0927 64.3982 30.2578 62.0441L23.4282 42.7867L30.6349 40.2308L36.4973 56.7611L36.9539 56.5992L31.0914 40.0689L38.2981 37.5131L44.1605 54.0434L44.6171 53.8815L38.7546 37.3512L45.9604 34.7957L52.79 54.0531C53.6249 56.4073 53.6526 58.7806 52.857 61.1166C52.2003 63.0449 51.1055 64.6391 49.5865 65.8689L55.9921 83.9307L65.9404 88.6701L70.6797 78.7218L65.4159 63.8795C63.0791 63.2508 60.8839 61.8552 58.8285 59.8081C56.4856 57.4745 54.7016 54.5174 53.4487 50.9845C51.8713 46.5365 51.4918 42.2953 52.4027 38.303C53.3172 34.2951 55.3854 31.4532 58.7778 30.25C62.1073 29.0692 65.4836 29.9925 68.7379 32.4984C72.0018 35.0117 74.4017 38.5407 75.9809 42.9935C77.2579 46.5944 77.7501 50.052 77.4004 53.3449C77.0952 56.2188 76.2644 58.6628 74.8201 60.5723L79.0048 72.3717L87.1245 69.4921L81.9831 54.9949L88.6701 40.9583L74.6335 34.2713L69.4921 19.7742L54.995 24.9156L40.9584 18.2286L34.2714 32.2652L19.7742 37.4066L24.9156 51.9037L18.2286 65.9403L32.2652 72.6273L37.4066 87.1245Z" stroke="#261C19" stroke-width="3"/>
</svg>
