<svg width="55" height="55" viewBox="0 0 55 55" fill="none" xmlns="http://www.w3.org/2000/svg">
<path d="M27.5 50.4167L26.9271 43.5417H26.3542C20.9306 43.5417 16.3281 41.6511 12.5469 37.8698C8.76563 34.0886 6.875 29.4862 6.875 24.0625C6.875 18.6389 8.76563 14.0365 12.5469 10.2552C16.3281 6.474 20.9306 4.58337 26.3542 4.58337C29.066 4.58337 31.5964 5.08945 33.9453 6.1016C36.2943 7.11376 38.3568 8.50785 40.1328 10.2839C41.9089 12.0599 43.303 14.1224 44.3151 16.4714C45.3273 18.8204 45.8334 21.3507 45.8334 24.0625C45.8334 26.9271 45.3655 29.6771 44.4297 32.3125C43.4939 34.948 42.2144 37.3924 40.5912 39.6459C38.9679 41.8993 37.0391 43.9428 34.8047 45.7761C32.5703 47.6094 30.1354 49.1563 27.5 50.4167ZM32.0833 42.0521C34.7952 39.7605 37.0009 37.0773 38.7005 34.0026C40.4002 30.928 41.25 27.6146 41.25 24.0625C41.25 19.8993 39.8082 16.3759 36.9245 13.4922C34.0408 10.6085 30.5174 9.16671 26.3542 9.16671C22.191 9.16671 18.6675 10.6085 15.7839 13.4922C12.9002 16.3759 11.4583 19.8993 11.4583 24.0625C11.4583 28.2257 12.9002 31.7492 15.7839 34.6329C18.6675 37.5165 22.191 38.9584 26.3542 38.9584H32.0833V42.0521ZM26.2969 36.6094C26.9462 36.6094 27.5 36.3803 27.9583 35.9219C28.4167 35.4636 28.6458 34.9098 28.6458 34.2605C28.6458 33.6112 28.4167 33.0573 27.9583 32.599C27.5 32.1407 26.9462 31.9115 26.2969 31.9115C25.6476 31.9115 25.0938 32.1407 24.6354 32.599C24.1771 33.0573 23.9479 33.6112 23.9479 34.2605C23.9479 34.9098 24.1771 35.4636 24.6354 35.9219C25.0938 36.3803 25.6476 36.6094 26.2969 36.6094ZM24.6354 29.3334H28.0729C28.0729 28.1875 28.1875 27.3855 28.4167 26.9271C28.6458 26.4688 29.3715 25.6285 30.5938 24.4063C31.2813 23.7188 31.8542 22.974 32.3125 22.1719C32.7708 21.3698 33 20.5105 33 19.5938C33 17.6459 32.3412 16.1849 31.0234 15.211C29.7057 14.237 28.1493 13.75 26.3542 13.75C24.6736 13.75 23.2604 14.2179 22.1146 15.1537C20.9688 16.0895 20.1667 17.2257 19.7083 18.5625L22.9167 19.823C23.1076 19.1737 23.4705 18.5339 24.0052 17.9037C24.5399 17.2735 25.3229 16.9584 26.3542 16.9584C27.3854 16.9584 28.1589 17.2448 28.6745 17.8177C29.1901 18.3907 29.4479 19.0209 29.4479 19.7084C29.4479 20.3577 29.257 20.9401 28.875 21.4558C28.4931 21.9714 28.0347 22.4966 27.5 23.0313C26.1632 24.1771 25.3516 25.0842 25.0651 25.7526C24.7787 26.421 24.6354 27.6146 24.6354 29.3334Z" fill="url(#paint0_linear_94_512)"/>
<defs>
<linearGradient id="paint0_linear_94_512" x1="26.3542" y1="4.58337" x2="26.3542" y2="50.4167" gradientUnits="userSpaceOnUse">
<stop stop-color="#FF3500"/>
<stop offset="1" stop-color="#940000"/>
</linearGradient>
</defs>
</svg>
