<svg width="48" height="48" viewBox="0 0 48 48" fill="none" xmlns="http://www.w3.org/2000/svg">
<path d="M39.8638 8.04467C35.8288 4.00967 30.2548 1.51367 24.0973 1.51367C11.7838 1.51367 1.7998 11.4962 1.7998 23.8112C1.7998 27.9092 2.9053 31.7477 4.8328 35.0477L4.7758 34.9427L1.6123 46.4957L13.4308 43.3952C16.5073 45.1037 20.1778 46.1087 24.0838 46.1087H24.0928C36.4063 46.1042 46.3858 36.1202 46.3858 23.8067C46.3858 17.6522 43.8928 12.0812 39.8623 8.04617L39.8638 8.04467ZM24.0928 42.3422H24.0853C20.6068 42.3422 17.3503 41.3822 14.5708 39.7127L14.6548 39.7592L13.9783 39.3587L6.9658 41.1992L8.8363 34.3607L8.3953 33.6602C6.6178 30.8672 5.5618 27.4637 5.5618 23.8127C5.5618 13.5797 13.8583 5.28317 24.0913 5.28317C34.3243 5.28317 42.6208 13.5797 42.6208 23.8127C42.6208 34.0457 34.3273 42.3422 24.0928 42.3422ZM34.2568 28.4657C33.7003 28.1867 30.9613 26.8412 30.4513 26.6537C29.9398 26.4677 29.5678 26.3762 29.1958 26.9342C28.8268 27.4907 27.7588 28.7447 27.4333 29.1167C27.1093 29.4902 26.7823 29.5352 26.2258 29.2577C24.5008 28.5587 23.0188 27.6272 21.7303 26.4797L21.7453 26.4932C20.5468 25.3832 19.5193 24.1127 18.6898 22.7117L18.6478 22.6337C18.3238 22.0772 18.6133 21.7757 18.8908 21.4982C19.1413 21.2492 19.4488 20.8472 19.7263 20.5232C19.9453 20.2547 20.1328 19.9472 20.2753 19.6172L20.2843 19.5917C20.3488 19.4612 20.3863 19.3097 20.3863 19.1477C20.3863 18.9512 20.3308 18.7682 20.2348 18.6122L20.2378 18.6167C20.0968 18.3377 18.9838 15.5957 18.5203 14.4797C18.0673 13.3937 17.6068 13.5422 17.2663 13.5242C16.9423 13.5092 16.5703 13.5062 16.1983 13.5062C15.6058 13.5212 15.0793 13.7882 14.7163 14.2007L14.7148 14.2037C13.5118 15.3452 12.7648 16.9547 12.7648 18.7382C12.7648 18.7772 12.7648 18.8177 12.7663 18.8567V18.8507C12.9628 21.0512 13.7878 23.0267 15.0568 24.6362L15.0388 24.6137C17.4448 28.1822 20.6518 31.0367 24.4153 32.9597L24.5563 33.0242C25.3783 33.3962 26.4313 33.7937 27.5083 34.1342L27.7318 34.1957C28.3948 34.4057 29.1583 34.5272 29.9503 34.5272C30.4048 34.5272 30.8518 34.4867 31.2838 34.4102L31.2373 34.4162C32.8408 34.0817 34.1713 33.1142 34.9828 31.7927L34.9963 31.7672C35.2438 31.2182 35.3878 30.5777 35.3878 29.9042C35.3878 29.6267 35.3638 29.3552 35.3173 29.0912L35.3218 29.1197C35.1838 28.8872 34.8118 28.7492 34.2538 28.4687L34.2568 28.4657Z" fill="url(#paint0_linear_29_54)"/>
<defs>
<linearGradient id="paint0_linear_29_54" x1="23.9991" y1="1.51367" x2="23.9991" y2="46.4957" gradientUnits="userSpaceOnUse">
<stop offset="0.110577" stop-color="#BB0000"/>
<stop offset="1" stop-color="#550000"/>
</linearGradient>
</defs>
</svg>
