<svg width="55" height="55" viewBox="0 0 55 55" fill="none" xmlns="http://www.w3.org/2000/svg">
<g clip-path="url(#clip0_38_144)">
<path fill-rule="evenodd" clip-rule="evenodd" d="M21.7049 16.3012C20.9975 15.8969 20.1283 15.8998 19.4236 16.3088C18.7189 16.7177 18.2852 17.4709 18.2852 18.2857V36.5714C18.2852 37.3863 18.7189 38.1394 19.4236 38.5483C20.1283 38.9573 20.9975 38.9602 21.7049 38.5559L37.7048 29.413C38.417 29.0062 38.8566 28.2489 38.8566 27.4286C38.8566 26.6082 38.417 25.851 37.7048 25.4441L21.7049 16.3012ZM31.9638 27.4286L22.8566 32.6327V22.2244L31.9638 27.4286Z" fill="#0F0F0F"/>
<path fill-rule="evenodd" clip-rule="evenodd" d="M0 27.4284C0 18.8575 0 14.5721 2.18266 11.568C2.88757 10.5977 3.7408 9.7445 4.71102 9.03958C7.7152 6.85693 12.0006 6.85693 20.5714 6.85693H34.2857C42.8565 6.85693 47.1419 6.85693 50.1461 9.03958C51.1163 9.7445 51.9696 10.5977 52.6745 11.568C54.8571 14.5721 54.8571 18.8575 54.8571 27.4284C54.8571 35.9991 54.8571 40.2846 52.6745 43.2887C51.9696 44.259 51.1163 45.1122 50.1461 45.8172C47.1419 47.9998 42.8565 47.9998 34.2857 47.9998H20.5714C12.0006 47.9998 7.7152 47.9998 4.71102 45.8172C3.7408 45.1122 2.88757 44.259 2.18266 43.2887C0 40.2846 0 35.9991 0 27.4284ZM20.5714 11.4284H34.2857C38.6729 11.4284 41.5961 11.4346 43.811 11.6746C45.9403 11.9053 46.8663 12.3072 47.4592 12.738C48.0411 13.1609 48.5531 13.6728 48.9762 14.255C49.4069 14.8479 49.8087 15.7738 50.0395 17.9031C50.2795 20.1179 50.2857 23.0412 50.2857 27.4284C50.2857 31.8156 50.2795 34.7388 50.0395 36.9536C49.8087 39.083 49.4069 40.0089 48.9762 40.6018C48.5531 41.1838 48.0411 41.6958 47.4592 42.1189C46.8663 42.5495 45.9403 42.9513 43.811 43.1822C41.5961 43.4222 38.6729 43.4284 34.2857 43.4284H20.5714C16.1842 43.4284 13.261 43.4222 11.0461 43.1822C8.91687 42.9513 7.99097 42.5495 7.39803 42.1189C6.81591 41.6958 6.30398 41.1838 5.88103 40.6018C5.45024 40.0089 5.04837 39.083 4.81767 36.9536C4.57771 34.7388 4.57143 31.8156 4.57143 27.4284C4.57143 23.0412 4.57771 20.1179 4.81767 17.9031C5.04837 15.7738 5.45024 14.8479 5.88103 14.255C6.30398 13.6728 6.81591 13.1609 7.39803 12.738C7.99097 12.3072 8.91687 11.9053 11.0461 11.6746C13.261 11.4346 16.1842 11.4284 20.5714 11.4284Z" fill="#0F0F0F"/>
</g>
<defs>
<clipPath id="clip0_38_144">
<rect width="54.8571" height="54.8571" fill="white"/>
</clipPath>
</defs>
</svg>
